4 Fromages.ufo
<glyph name="seven" format="2">
	<advance width="1000"/>
	<unicode hex="0037"/>
	<note>
		seven
  </note>
	<outline>
		<contour>
			<point x="886" y="0" type="curve" smooth="yes"/>
			<point x="920" y="0"/>
			<point x="949" y="7"/>
			<point x="980" y="16" type="curve"/>
			<point x="977" y="19" type="line"/>
			<point x="953" y="11"/>
			<point x="939" y="9"/>
			<point x="923" y="9" type="curve" smooth="yes"/>
			<point x="797" y="9"/>
			<point x="804" y="179"/>
			<point x="715" y="272" type="curve" smooth="yes"/>
			<point x="665" y="324"/>
			<point x="601" y="316"/>
			<point x="546" y="337" type="curve" smooth="yes"/>
			<point x="489" y="359"/>
			<point x="486" y="422"/>
			<point x="504" y="492" type="curve"/>
			<point x="500" y="496" type="line"/>
			<point x="444" y="384"/>
			<point x="412" y="448"/>
			<point x="340" y="250" type="curve" smooth="yes"/>
			<point x="313" y="175"/>
			<point x="269" y="166"/>
			<point x="196" y="187" type="curve"/>
			<point x="192" y="183" type="line"/>
			<point x="240" y="166"/>
			<point x="285" y="162"/>
			<point x="322" y="171" type="curve" smooth="yes"/>
			<point x="323" y="171"/>
			<point x="323" y="171"/>
			<point x="324" y="172" type="curve"/>
			<point x="333" y="174" type="line" smooth="yes"/>
			<point x="359" y="182"/>
			<point x="361" y="183"/>
			<point x="356" y="125" type="curve" smooth="yes"/>
			<point x="355" y="115"/>
			<point x="355" y="106"/>
			<point x="361" y="106" type="curve" smooth="yes"/>
			<point x="366" y="106"/>
			<point x="366" y="118"/>
			<point x="365" y="124" type="curve" smooth="yes"/>
			<point x="355" y="182"/>
			<point x="361" y="176"/>
			<point x="383" y="208" type="curve" smooth="yes"/>
			<point x="386" y="213"/>
			<point x="389" y="218"/>
			<point x="392" y="223" type="curve" smooth="yes"/>
			<point x="398" y="236"/>
			<point x="402" y="252"/>
			<point x="402" y="269" type="curve" smooth="yes"/>
			<point x="402" y="349"/>
			<point x="415" y="388"/>
			<point x="478" y="432" type="curve"/>
			<point x="464" y="340"/>
			<point x="557" y="300"/>
			<point x="628" y="262" type="curve"/>
			<point x="652" y="246"/>
			<point x="648" y="239"/>
			<point x="643" y="197" type="curve" smooth="yes"/>
			<point x="640" y="174"/>
			<point x="637" y="145"/>
			<point x="651" y="145" type="curve" smooth="yes"/>
			<point x="662" y="145"/>
			<point x="659" y="173"/>
			<point x="654" y="200" type="curve" smooth="yes"/>
			<point x="646" y="244"/>
			<point x="662" y="249"/>
			<point x="694" y="214" type="curve"/>
			<point x="768" y="111"/>
			<point x="778" y="0"/>
		</contour>
		<contour>
			<point x="160" y="191" type="curve"/>
			<point x="165" y="198" type="line"/>
			<point x="27" y="274"/>
			<point x="72" y="447"/>
			<point x="131" y="601" type="curve"/>
			<point x="375" y="601" type="line"/>
			<point x="375" y="615" type="line"/>
			<point x="136" y="615" type="line"/>
			<point x="158" y="671"/>
			<point x="181" y="725"/>
			<point x="197" y="769" type="curve"/>
			<point x="188" y="788" type="line"/>
			<point x="130" y="783"/>
			<point x="72" y="780"/>
			<point x="9" y="788" type="curve"/>
			<point x="7" y="755"/>
			<point x="7" y="723"/>
			<point x="29" y="697" type="curve"/>
			<point x="34" y="700" type="line"/>
			<point x="23" y="721"/>
			<point x="14" y="769"/>
			<point x="139" y="769" type="curve" smooth="yes"/>
			<point x="151" y="769" type="line"/>
			<point x="138" y="742"/>
			<point x="112" y="684"/>
			<point x="90" y="615" type="curve"/>
			<point x="5" y="615" type="line"/>
			<point x="5" y="601" type="line"/>
			<point x="85" y="601" type="line"/>
			<point x="40" y="453"/>
			<point x="16" y="258"/>
		</contour>
		<contour>
			<point x="521" y="537" type="curve" smooth="yes"/>
			<point x="534" y="655"/>
			<point x="795" y="738"/>
			<point x="795" y="881" type="curve" smooth="yes"/>
			<point x="795" y="956"/>
			<point x="740" y="1001"/>
			<point x="662" y="1001" type="curve" smooth="yes"/>
			<point x="552" y="1001"/>
			<point x="486" y="950"/>
			<point x="486" y="841" type="curve" smooth="yes"/>
			<point x="486" y="800"/>
			<point x="568" y="851"/>
			<point x="568" y="852" type="curve" smooth="yes"/>
			<point x="568" y="912"/>
			<point x="637" y="879"/>
			<point x="637" y="913" type="curve" smooth="yes"/>
			<point x="637" y="930"/>
			<point x="609" y="950"/>
			<point x="609" y="957" type="curve" smooth="yes"/>
			<point x="609" y="962"/>
			<point x="621" y="965"/>
			<point x="647" y="965" type="curve" smooth="yes"/>
			<point x="674" y="965"/>
			<point x="693" y="960"/>
			<point x="693" y="947" type="curve" smooth="yes"/>
			<point x="693" y="930"/>
			<point x="663" y="898"/>
			<point x="663" y="876" type="curve" smooth="yes"/>
			<point x="663" y="856"/>
			<point x="696" y="820"/>
			<point x="696" y="807" type="curve" smooth="yes"/>
			<point x="696" y="795"/>
			<point x="684" y="775"/>
			<point x="660" y="775" type="curve" smooth="yes"/>
			<point x="549" y="775"/>
			<point x="418" y="772"/>
			<point x="335" y="807" type="curve" smooth="yes"/>
			<point x="266" y="837"/>
			<point x="231" y="843"/>
			<point x="224" y="809" type="curve" smooth="yes"/>
			<point x="216" y="769"/>
			<point x="266" y="748"/>
			<point x="327" y="748" type="curve" smooth="yes"/>
			<point x="579" y="748" type="line"/>
			<point x="514" y="708"/>
			<point x="458" y="635"/>
			<point x="452" y="597" type="curve" smooth="yes"/>
			<point x="443" y="538"/>
			<point x="514" y="472"/>
		</contour>
		<contour>
			<point x="894" y="161" type="curve" smooth="yes"/>
			<point x="953" y="161"/>
			<point x="990" y="233"/>
			<point x="990" y="299" type="curve" smooth="yes"/>
			<point x="990" y="343"/>
			<point x="975" y="384"/>
			<point x="948" y="400" type="curve"/>
			<point x="909" y="377" type="line"/>
			<point x="941" y="350"/>
			<point x="959" y="303"/>
			<point x="959" y="259" type="curve" smooth="yes"/>
			<point x="959" y="210"/>
			<point x="937" y="167"/>
			<point x="893" y="167" type="curve" smooth="yes"/>
			<point x="824" y="167"/>
			<point x="819" y="239"/>
			<point x="822" y="330" type="curve" smooth="yes"/>
			<point x="825" y="367"/>
			<point x="833" y="417"/>
			<point x="848" y="478" type="curve"/>
			<point x="990" y="495" type="line"/>
			<point x="987" y="500" type="line"/>
			<point x="849" y="484" type="line"/>
			<point x="875" y="591"/>
			<point x="917" y="731"/>
			<point x="971" y="889" type="curve" smooth="yes"/>
			<point x="973" y="894"/>
			<point x="955" y="898"/>
			<point x="954" y="895" type="curve" smooth="yes"/>
			<point x="880" y="680"/>
			<point x="695" y="625"/>
			<point x="637" y="614" type="curve" smooth="yes"/>
			<point x="630" y="613"/>
			<point x="637" y="587"/>
			<point x="644" y="588" type="curve" smooth="yes"/>
			<point x="716" y="602"/>
			<point x="851" y="651"/>
			<point x="931" y="821" type="curve"/>
			<point x="936" y="819" type="line"/>
			<point x="891" y="700"/>
			<point x="839" y="579"/>
			<point x="809" y="480" type="curve"/>
			<point x="701" y="467" type="line"/>
			<point x="701" y="458" type="line"/>
			<point x="734" y="463"/>
			<point x="769" y="468"/>
			<point x="807" y="473" type="curve"/>
			<point x="792" y="421"/>
			<point x="782" y="376"/>
			<point x="782" y="339" type="curve" smooth="yes"/>
			<point x="782" y="244"/>
			<point x="815" y="161"/>
		</contour>
	</outline>
</glyph>
<glyph name="F" format="2">
	<advance width="1000"/>
	<unicode hex="0046"/>
	<note>
		F
  </note>
	<outline>
		<contour>
			<point x="19" y="53" type="line"/>
			<point x="25" y="44" type="line"/>
			<point x="224" y="253" type="line"/>
			<point x="213" y="262" type="line"/>
			<point x="98" y="149" type="line"/>
			<point x="119" y="189"/>
			<point x="131" y="227"/>
			<point x="100" y="376" type="curve" smooth="yes"/>
			<point x="82" y="467" type="line"/>
			<point x="186" y="476"/>
			<point x="178" y="406"/>
			<point x="136" y="333" type="curve"/>
			<point x="143" y="328" type="line"/>
			<point x="250" y="540" type="line"/>
			<point x="245" y="542" type="line"/>
			<point x="225" y="515"/>
			<point x="197" y="485"/>
			<point x="80" y="477" type="curve"/>
			<point x="34" y="721"/>
			<point x="49" y="785"/>
			<point x="114" y="785" type="curve" smooth="yes"/>
			<point x="183" y="785"/>
			<point x="352" y="648"/>
			<point x="302" y="389" type="curve"/>
			<point x="305" y="385" type="line"/>
			<point x="392" y="499" type="line"/>
			<point x="270" y="730"/>
			<point x="73" y="914"/>
			<point x="37" y="933" type="curve"/>
			<point x="23" y="926" type="line"/>
			<point x="13" y="895"/>
			<point x="13" y="860"/>
			<point x="13" y="804" type="curve" smooth="yes"/>
			<point x="13" y="706"/>
			<point x="32" y="584"/>
			<point x="47" y="466" type="curve"/>
			<point x="15" y="444"/>
			<point x="4" y="419"/>
			<point x="4" y="396" type="curve" smooth="yes"/>
			<point x="4" y="354"/>
			<point x="30" y="310"/>
			<point x="65" y="284" type="curve"/>
			<point x="69" y="191"/>
			<point x="62" y="113"/>
			<point x="29" y="67" type="curve" smooth="yes"/>
		</contour>
		<contour>
			<point x="59" y="362" type="curve"/>
			<point x="39" y="371"/>
			<point x="22" y="388"/>
			<point x="22" y="414" type="curve" smooth="yes"/>
			<point x="22" y="422"/>
			<point x="25" y="442"/>
			<point x="48" y="459" type="curve"/>
			<point x="52" y="426"/>
			<point x="56" y="393"/>
		</contour>
		<contour>
			<point x="188" y="1" type="curve" smooth="yes"/>
			<point x="276" y="1"/>
			<point x="281" y="178"/>
			<point x="329" y="247" type="curve" smooth="yes"/>
			<point x="344" y="268"/>
			<point x="363" y="276"/>
			<point x="386" y="276" type="curve" smooth="yes"/>
			<point x="427" y="276"/>
			<point x="479" y="251"/>
			<point x="531" y="234" type="curve" smooth="yes"/>
			<point x="565" y="223"/>
			<point x="612" y="215"/>
			<point x="692" y="208" type="curve" smooth="yes"/>
			<point x="703" y="207"/>
			<point x="706" y="204"/>
			<point x="703" y="171" type="curve" smooth="yes"/>
			<point x="701" y="151"/>
			<point x="695" y="124"/>
			<point x="708" y="124" type="curve" smooth="yes"/>
			<point x="719" y="124"/>
			<point x="715" y="150"/>
			<point x="712" y="172" type="curve" smooth="yes"/>
			<point x="707" y="209"/>
			<point x="712" y="208"/>
			<point x="747" y="207" type="curve" smooth="yes"/>
			<point x="782" y="206"/>
			<point x="779" y="241"/>
			<point x="743" y="236" type="curve" smooth="yes"/>
			<point x="530" y="206"/>
			<point x="475" y="266"/>
			<point x="440" y="307" type="curve" smooth="yes"/>
			<point x="414" y="338"/>
			<point x="419" y="375"/>
			<point x="435" y="401" type="curve" smooth="yes"/>
			<point x="448" y="419"/>
			<point x="458" y="427"/>
			<point x="463" y="428" type="curve" smooth="yes"/>
			<point x="469" y="429"/>
			<point x="473" y="409"/>
			<point x="469" y="373" type="curve" smooth="yes"/>
			<point x="468" y="363"/>
			<point x="468" y="354"/>
			<point x="474" y="354" type="curve" smooth="yes"/>
			<point x="479" y="354"/>
			<point x="479" y="366"/>
			<point x="478" y="372" type="curve" smooth="yes"/>
			<point x="477" y="380"/>
			<point x="474" y="397"/>
			<point x="474" y="411" type="curve" smooth="yes"/>
			<point x="474" y="427"/>
			<point x="480" y="441"/>
			<point x="496" y="437" type="curve" smooth="yes"/>
			<point x="546" y="425"/>
			<point x="545" y="288"/>
			<point x="614" y="288" type="curve" smooth="yes"/>
			<point x="661" y="288"/>
			<point x="660" y="352"/>
			<point x="635" y="346" type="curve" smooth="yes"/>
			<point x="615" y="341"/>
			<point x="657" y="294"/>
			<point x="615" y="294" type="curve" smooth="yes"/>
			<point x="585" y="294"/>
			<point x="578" y="326"/>
			<point x="576" y="372" type="curve" smooth="yes"/>
			<point x="576" y="410"/>
			<point x="570" y="453"/>
			<point x="528" y="453" type="curve" smooth="yes"/>
			<point x="484" y="453"/>
			<point x="397" y="423"/>
			<point x="397" y="367" type="curve" smooth="yes"/>
			<point x="397" y="342"/>
			<point x="412" y="311"/>
			<point x="451" y="282" type="curve" smooth="yes"/>
			<point x="457" y="278"/>
			<point x="454" y="273"/>
			<point x="448" y="275" type="curve" smooth="yes"/>
			<point x="393" y="292"/>
			<point x="385" y="308"/>
			<point x="348" y="312" type="curve" smooth="yes"/>
			<point x="226" y="325"/>
			<point x="290" y="9"/>
			<point x="189" y="9" type="curve" smooth="yes"/>
			<point x="134" y="9"/>
			<point x="159" y="95"/>
			<point x="130" y="98" type="curve" smooth="yes"/>
			<point x="92" y="102"/>
			<point x="55" y="47"/>
			<point x="55" y="17" type="curve" smooth="yes"/>
			<point x="55" y="-4"/>
			<point x="84" y="-3"/>
			<point x="84" y="16" type="curve" smooth="yes"/>
			<point x="84" y="24"/>
			<point x="78" y="30"/>
			<point x="78" y="46" type="curve" smooth="yes"/>
			<point x="78" y="59"/>
			<point x="91" y="79"/>
			<point x="102" y="79" type="curve" smooth="yes"/>
			<point x="124" y="79"/>
			<point x="132" y="1"/>
		</contour>
		<contour>
			<point x="921" y="128" type="curve" smooth="yes"/>
			<point x="984" y="128"/>
			<point x="996" y="230"/>
			<point x="996" y="288" type="curve" smooth="yes"/>
			<point x="996" y="422"/>
			<point x="892" y="448"/>
			<point x="811" y="473" type="curve"/>
			<point x="905" y="476"/>
			<point x="1001" y="514"/>
			<point x="987" y="588" type="curve"/>
			<point x="944" y="602" type="line"/>
			<point x="944" y="498"/>
			<point x="880" y="476"/>
			<point x="799" y="477" type="curve"/>
			<point x="779" y="495"/>
			<point x="761" y="506"/>
			<point x="750" y="506" type="curve" smooth="yes"/>
			<point x="741" y="506"/>
			<point x="735" y="500"/>
			<point x="735" y="493" type="curve" smooth="yes"/>
			<point x="735" y="476"/>
			<point x="759" y="474"/>
			<point x="781" y="473" type="curve" smooth="yes"/>
			<point x="801" y="473" type="line"/>
			<point x="890" y="440"/>
			<point x="990" y="353"/>
			<point x="990" y="270" type="curve" smooth="yes"/>
			<point x="990" y="214"/>
			<point x="971" y="160"/>
			<point x="914" y="160" type="curve" smooth="yes"/>
			<point x="786" y="160"/>
			<point x="682" y="361"/>
			<point x="678" y="500" type="curve" smooth="yes"/>
			<point x="678" y="508"/>
			<point x="678" y="516"/>
			<point x="678" y="524" type="curve"/>
			<point x="894" y="577"/>
			<point x="991" y="659"/>
			<point x="991" y="777" type="curve" smooth="yes"/>
			<point x="991" y="825"/>
			<point x="967" y="860"/>
			<point x="920" y="860" type="curve" smooth="yes"/>
			<point x="833" y="860"/>
			<point x="664" y="642"/>
			<point x="645" y="520" type="curve"/>
			<point x="608" y="512"/>
			<point x="568" y="505"/>
			<point x="525" y="500" type="curve"/>
			<point x="526" y="494" type="line"/>
			<point x="568" y="501"/>
			<point x="608" y="508"/>
			<point x="644" y="516" type="curve"/>
			<point x="643" y="510"/>
			<point x="643" y="504"/>
			<point x="643" y="499" type="curve" smooth="yes"/>
			<point x="643" y="388"/>
			<point x="830" y="128"/>
		</contour>
		<contour>
			<point x="390" y="641" type="line"/>
			<point x="505" y="526" type="line"/>
			<point x="549" y="570"/>
			<point x="569" y="591"/>
			<point x="569" y="601" type="curve" smooth="yes"/>
			<point x="569" y="618"/>
			<point x="501" y="644"/>
			<point x="501" y="681" type="curve" smooth="yes"/>
			<point x="501" y="862" type="line"/>
			<point x="622" y="862" type="line"/>
			<point x="622" y="885" type="line"/>
			<point x="501" y="885" type="line"/>
			<point x="501" y="957" type="line"/>
			<point x="562" y="950"/>
			<point x="657" y="943"/>
			<point x="703" y="932" type="curve" smooth="yes"/>
			<point x="729" y="926"/>
			<point x="741" y="917"/>
			<point x="741" y="905" type="curve" smooth="yes"/>
			<point x="741" y="887"/>
			<point x="709" y="866"/>
			<point x="681" y="853" type="curve" smooth="yes"/>
			<point x="627" y="828"/>
			<point x="581" y="812"/>
			<point x="581" y="777" type="curve" smooth="yes"/>
			<point x="581" y="764"/>
			<point x="588" y="748"/>
			<point x="603" y="731" type="curve"/>
			<point x="718" y="782" type="line"/>
			<point x="709" y="795"/>
			<point x="702" y="806"/>
			<point x="702" y="823" type="curve" smooth="yes"/>
			<point x="702" y="856"/>
			<point x="764" y="893"/>
			<point x="816" y="913" type="curve" smooth="yes"/>
			<point x="861" y="930"/>
			<point x="897" y="945"/>
			<point x="918" y="955" type="curve" smooth="yes"/>
			<point x="933" y="963"/>
			<point x="940" y="968"/>
			<point x="940" y="972" type="curve" smooth="yes"/>
			<point x="940" y="977"/>
			<point x="928" y="979"/>
			<point x="903" y="979" type="curve" smooth="yes"/>
			<point x="876" y="979"/>
			<point x="728" y="965"/>
			<point x="672" y="965" type="curve" smooth="yes"/>
			<point x="550" y="965"/>
			<point x="505" y="988"/>
			<point x="498" y="987" type="curve" smooth="yes"/>
			<point x="328" y="954" type="line"/>
			<point x="336" y="932" type="line"/>
			<point x="426" y="951" type="line"/>
			<point x="426" y="885" type="line"/>
			<point x="249" y="885" type="line"/>
			<point x="249" y="862" type="line"/>
			<point x="250" y="862" type="line" smooth="yes"/>
			<point x="302" y="862"/>
			<point x="316" y="815"/>
			<point x="327" y="750" type="curve"/>
			<point x="340" y="766" type="line"/>
			<point x="341" y="798"/>
			<point x="344" y="841"/>
			<point x="363" y="855" type="curve" smooth="yes"/>
			<point x="374" y="863"/>
			<point x="381" y="862"/>
			<point x="426" y="862" type="curve"/>
			<point x="426" y="643" type="line" smooth="yes"/>
			<point x="426" y="629"/>
			<point x="410" y="637"/>
			<point x="390" y="655" type="curve"/>
		</contour>
		<contour>
			<point x="679" y="529" type="curve"/>
			<point x="690" y="665"/>
			<point x="802" y="830"/>
			<point x="928" y="830" type="curve" smooth="yes"/>
			<point x="964" y="830"/>
			<point x="985" y="806"/>
			<point x="985" y="776" type="curve" smooth="yes"/>
			<point x="985" y="717"/>
			<point x="901" y="591"/>
		</contour>
	</outline>
</glyph>
<glyph name="H" format="2">
	<advance width="1000"/>
	<unicode hex="0048"/>
	<note>
		H
  </note>
	<outline>
		<contour>
			<point x="888" y="1" type="curve" smooth="yes"/>
			<point x="910" y="1"/>
			<point x="930" y="8"/>
			<point x="953" y="19" type="curve" smooth="yes"/>
			<point x="970" y="27"/>
			<point x="960" y="47"/>
			<point x="942" y="36" type="curve" smooth="yes"/>
			<point x="917" y="20"/>
			<point x="900" y="9"/>
			<point x="882" y="9" type="curve" smooth="yes"/>
			<point x="843" y="9"/>
			<point x="819" y="59"/>
			<point x="810" y="117" type="curve" smooth="yes"/>
			<point x="803" y="161"/>
			<point x="799" y="206"/>
			<point x="757" y="239" type="curve" smooth="yes"/>
			<point x="733" y="258"/>
			<point x="710" y="266"/>
			<point x="686" y="274" type="curve" smooth="yes"/>
			<point x="622" y="296"/>
			<point x="560" y="318"/>
			<point x="532" y="374" type="curve" smooth="yes"/>
			<point x="523" y="392"/>
			<point x="522" y="412"/>
			<point x="537" y="412" type="curve" smooth="yes"/>
			<point x="547" y="412"/>
			<point x="562" y="401"/>
			<point x="579" y="365" type="curve" smooth="yes"/>
			<point x="586" y="350"/>
			<point x="597" y="358"/>
			<point x="592" y="370" type="curve" smooth="yes"/>
			<point x="524" y="533"/>
			<point x="501" y="418"/>
			<point x="527" y="361" type="curve" smooth="yes"/>
			<point x="541" y="330"/>
			<point x="565" y="303"/>
			<point x="603" y="276" type="curve" smooth="yes"/>
			<point x="608" y="273"/>
			<point x="607" y="269"/>
			<point x="599" y="268" type="curve" smooth="yes"/>
			<point x="460" y="251"/>
			<point x="276" y="183"/>
			<point x="196" y="63" type="curve" smooth="yes"/>
			<point x="192" y="57"/>
			<point x="187" y="62"/>
			<point x="190" y="67" type="curve" smooth="yes"/>
			<point x="223" y="129"/>
			<point x="266" y="177"/>
			<point x="300" y="205" type="curve" smooth="yes"/>
			<point x="396" y="284"/>
			<point x="454" y="302"/>
			<point x="465" y="400" type="curve" smooth="yes"/>
			<point x="469" y="433"/>
			<point x="478" y="454"/>
			<point x="504" y="476" type="curve" smooth="yes"/>
			<point x="517" y="487"/>
			<point x="504" y="500"/>
			<point x="493" y="488" type="curve" smooth="yes"/>
			<point x="467" y="459"/>
			<point x="463" y="440"/>
			<point x="458" y="414" type="curve" smooth="yes"/>
			<point x="443" y="332"/>
			<point x="418" y="310"/>
			<point x="314" y="274" type="curve" smooth="yes"/>
			<point x="290" y="266"/>
			<point x="267" y="258"/>
			<point x="243" y="239" type="curve" smooth="yes"/>
			<point x="186" y="194"/>
			<point x="200" y="123"/>
			<point x="178" y="70" type="curve" smooth="yes"/>
			<point x="154" y="13"/>
			<point x="102" y="-23"/>
			<point x="57" y="33" type="curve" smooth="yes"/>
			<point x="42" y="52"/>
			<point x="27" y="26"/>
			<point x="46" y="16" type="curve" smooth="yes"/>
			<point x="76" y="0"/>
			<point x="139" y="-20"/>
			<point x="202" y="50" type="curve" smooth="yes"/>
			<point x="212" y="61"/>
			<point x="233" y="84"/>
			<point x="244" y="84" type="curve" smooth="yes"/>
			<point x="254" y="84"/>
			<point x="253" y="65"/>
			<point x="249" y="30" type="curve" smooth="yes"/>
			<point x="248" y="20"/>
			<point x="248" y="11"/>
			<point x="254" y="11" type="curve" smooth="yes"/>
			<point x="259" y="11"/>
			<point x="260" y="23"/>
			<point x="259" y="29" type="curve" smooth="yes"/>
			<point x="250" y="87"/>
			<point x="256" y="100"/>
			<point x="291" y="132" type="curve" smooth="yes"/>
			<point x="343" y="180"/>
			<point x="411" y="211"/>
			<point x="489" y="233" type="curve" smooth="yes"/>
			<point x="524" y="243"/>
			<point x="530" y="233"/>
			<point x="522" y="191" type="curve" smooth="yes"/>
			<point x="517" y="165"/>
			<point x="514" y="136"/>
			<point x="525" y="136" type="curve" smooth="yes"/>
			<point x="539" y="136"/>
			<point x="536" y="165"/>
			<point x="533" y="188" type="curve" smooth="yes"/>
			<point x="527" y="232"/>
			<point x="533" y="243"/>
			<point x="551" y="248" type="curve" smooth="yes"/>
			<point x="615" y="266"/>
			<point x="633" y="261"/>
			<point x="699" y="205" type="curve" smooth="yes"/>
			<point x="733" y="177"/>
			<point x="775" y="131"/>
			<point x="804" y="68" type="curve" smooth="yes"/>
			<point x="829" y="14"/>
			<point x="858" y="1"/>
		</contour>
		<contour>
			<point x="16" y="39" type="line"/>
			<point x="21" y="35" type="line"/>
			<point x="142" y="160" type="line"/>
			<point x="144" y="239"/>
			<point x="144" y="333"/>
			<point x="140" y="426" type="curve"/>
			<point x="218" y="528"/>
			<point x="234" y="613"/>
			<point x="281" y="613" type="curve" smooth="yes"/>
			<point x="309" y="613"/>
			<point x="334" y="585"/>
			<point x="334" y="522" type="curve" smooth="yes"/>
			<point x="334" y="451"/>
			<point x="304" y="348"/>
			<point x="245" y="263" type="curve"/>
			<point x="251" y="260" type="line"/>
			<point x="322" y="358"/>
			<point x="365" y="457"/>
			<point x="365" y="544" type="curve" smooth="yes"/>
			<point x="365" y="634"/>
			<point x="320" y="691"/>
			<point x="277" y="691" type="curve" smooth="yes"/>
			<point x="207" y="691"/>
			<point x="220" y="558"/>
			<point x="140" y="439" type="curve"/>
			<point x="133" y="613"/>
			<point x="116" y="785"/>
			<point x="92" y="858" type="curve"/>
			<point x="210" y="730" type="line"/>
			<point x="235" y="751" type="line"/>
			<point x="26" y="965" type="line"/>
			<point x="23" y="959" type="line"/>
			<point x="85" y="867"/>
			<point x="129" y="197"/>
			<point x="21" y="46" type="curve" smooth="yes"/>
		</contour>
		<contour>
			<point x="498" y="545" type="curve"/>
			<point x="560" y="622" type="line"/>
			<point x="430" y="732" type="line"/>
			<point x="415" y="753"/>
			<point x="408" y="771"/>
			<point x="408" y="787" type="curve" smooth="yes"/>
			<point x="408" y="804"/>
			<point x="416" y="818"/>
			<point x="432" y="828" type="curve" smooth="yes"/>
			<point x="448" y="838"/>
			<point x="470" y="846"/>
			<point x="497" y="846" type="curve" smooth="yes"/>
			<point x="579" y="847"/>
			<point x="669" y="846"/>
			<point x="701" y="843" type="curve"/>
			<point x="711" y="841"/>
			<point x="716" y="838"/>
			<point x="716" y="834" type="curve" smooth="yes"/>
			<point x="716" y="829"/>
			<point x="707" y="820"/>
			<point x="689" y="808" type="curve" smooth="yes"/>
			<point x="670" y="796"/>
			<point x="640" y="778"/>
			<point x="597" y="755" type="curve" smooth="yes"/>
			<point x="567" y="738"/>
			<point x="531" y="711"/>
			<point x="531" y="678" type="curve" smooth="yes"/>
			<point x="531" y="663"/>
			<point x="542" y="651"/>
			<point x="555" y="651" type="curve" smooth="yes"/>
			<point x="658" y="651" type="line"/>
			<point x="637" y="696" type="line"/>
			<point x="609" y="703"/>
			<point x="595" y="711"/>
			<point x="595" y="720" type="curve" smooth="yes"/>
			<point x="595" y="729"/>
			<point x="604" y="738"/>
			<point x="623" y="749" type="curve" smooth="yes"/>
			<point x="642" y="760"/>
			<point x="670" y="774"/>
			<point x="707" y="792" type="curve" smooth="yes"/>
			<point x="742" y="807"/>
			<point x="768" y="820"/>
			<point x="786" y="831" type="curve" smooth="yes"/>
			<point x="804" y="842"/>
			<point x="813" y="851"/>
			<point x="813" y="859" type="curve"/>
			<point x="805" y="857" type="line"/>
			<point x="805" y="870"/>
			<point x="788" y="879"/>
			<point x="753" y="883" type="curve" smooth="yes"/>
			<point x="718" y="887"/>
			<point x="660" y="889"/>
			<point x="578" y="889" type="curve" smooth="yes"/>
			<point x="487" y="889"/>
			<point x="425" y="886"/>
			<point x="390" y="879" type="curve" smooth="yes"/>
			<point x="355" y="872"/>
			<point x="337" y="861"/>
			<point x="337" y="847" type="curve" smooth="yes"/>
			<point x="337" y="841"/>
			<point x="339" y="835"/>
			<point x="344" y="828" type="curve" smooth="yes"/>
			<point x="349" y="821"/>
			<point x="356" y="812"/>
			<point x="366" y="800" type="curve" smooth="yes"/>
			<point x="379" y="785" type="line" smooth="yes"/>
			<point x="386" y="776"/>
			<point x="391" y="768"/>
			<point x="394" y="761" type="curve"/>
			<point x="256" y="878" type="line"/>
			<point x="230" y="908"/>
			<point x="217" y="927"/>
			<point x="217" y="935" type="curve" smooth="yes"/>
			<point x="217" y="938"/>
			<point x="219" y="940"/>
			<point x="223" y="940" type="curve" smooth="yes"/>
			<point x="230" y="940"/>
			<point x="249" y="933"/>
			<point x="280" y="918" type="curve" smooth="yes"/>
			<point x="313" y="902"/>
			<point x="333" y="895"/>
			<point x="340" y="896" type="curve"/>
			<point x="340" y="977" type="line"/>
			<point x="226" y="978"/>
			<point x="169" y="958"/>
			<point x="169" y="918" type="curve" smooth="yes"/>
			<point x="169" y="896"/>
			<point x="183" y="870"/>
			<point x="211" y="840" type="curve" smooth="yes"/>
			<point x="239" y="809"/>
			<point x="280" y="770"/>
			<point x="335" y="722" type="curve" smooth="yes"/>
			<point x="386" y="676"/>
			<point x="424" y="640"/>
			<point x="449" y="615" type="curve" smooth="yes"/>
			<point x="475" y="590"/>
			<point x="491" y="566"/>
		</contour>
		<contour>
			<point x="913" y="151" type="curve" smooth="yes"/>
			<point x="974" y="151"/>
			<point x="996" y="202"/>
			<point x="996" y="258" type="curve" smooth="yes"/>
			<point x="996" y="330"/>
			<point x="952" y="391"/>
			<point x="912" y="399" type="curve"/>
			<point x="883" y="364" type="line"/>
			<point x="983" y="324"/>
			<point x="1019" y="157"/>
			<point x="916" y="157" type="curve" smooth="yes"/>
			<point x="842" y="157"/>
			<point x="733" y="266"/>
			<point x="733" y="334" type="curve" smooth="yes"/>
			<point x="733" y="497"/>
			<point x="994" y="463"/>
			<point x="994" y="645" type="curve" smooth="yes"/>
			<point x="994" y="695"/>
			<point x="960" y="726"/>
			<point x="909" y="726" type="curve" smooth="yes"/>
			<point x="864" y="726"/>
			<point x="788" y="691"/>
			<point x="639" y="565" type="curve"/>
			<point x="700" y="631"/>
			<point x="778" y="728"/>
			<point x="848" y="816" type="curve" smooth="yes"/>
			<point x="883" y="860"/>
			<point x="916" y="879"/>
			<point x="941" y="879" type="curve" smooth="yes"/>
			<point x="956" y="879"/>
			<point x="971" y="873"/>
			<point x="977" y="863" type="curve"/>
			<point x="1000" y="912" type="line"/>
			<point x="995" y="920"/>
			<point x="980" y="926"/>
			<point x="963" y="926" type="curve" smooth="yes"/>
			<point x="925" y="926"/>
			<point x="893" y="885"/>
			<point x="859" y="842" type="curve" smooth="yes"/>
			<point x="746" y="697"/>
			<point x="613" y="533"/>
			<point x="575" y="519" type="curve"/>
			<point x="566" y="521"/>
			<point x="558" y="522"/>
			<point x="551" y="522" type="curve" smooth="yes"/>
			<point x="531" y="522"/>
			<point x="519" y="515"/>
			<point x="519" y="501" type="curve" smooth="yes"/>
			<point x="519" y="491"/>
			<point x="529" y="485"/>
			<point x="538" y="485" type="curve" smooth="yes"/>
			<point x="548" y="485"/>
			<point x="560" y="491"/>
			<point x="568" y="498" type="curve" smooth="yes"/>
			<point x="579" y="506"/>
			<point x="592" y="518"/>
			<point x="607" y="532" type="curve" smooth="yes"/>
			<point x="769" y="672"/>
			<point x="838" y="691"/>
			<point x="885" y="691" type="curve" smooth="yes"/>
			<point x="938" y="691"/>
			<point x="976" y="665"/>
			<point x="976" y="614" type="curve" smooth="yes"/>
			<point x="976" y="552"/>
			<point x="927" y="527"/>
			<point x="867" y="508" type="curve" smooth="yes"/>
			<point x="798" y="486"/>
			<point x="720" y="451"/>
			<point x="720" y="360" type="curve" smooth="yes"/>
			<point x="720" y="262"/>
			<point x="837" y="151"/>
		</contour>
	</outline>
</glyph>
<glyph name="L" format="2">
	<advance width="1000"/>
	<unicode hex="004C"/>
	<note>
		L
  </note>
	<outline>
		<contour>
			<point x="64" y="99" type="curve" smooth="yes"/>
			<point x="147" y="99"/>
			<point x="288" y="384"/>
			<point x="440" y="468" type="curve"/>
			<point x="436" y="477" type="line"/>
			<point x="286" y="387"/>
			<point x="186" y="207"/>
			<point x="107" y="207" type="curve" smooth="yes"/>
			<point x="73" y="207"/>
			<point x="49" y="237"/>
			<point x="49" y="320" type="curve" smooth="yes"/>
			<point x="49" y="524"/>
			<point x="169" y="682"/>
			<point x="113" y="869" type="curve"/>
			<point x="17" y="968" type="line"/>
			<point x="14" y="963" type="line"/>
			<point x="128" y="822"/>
			<point x="13" y="332"/>
			<point x="13" y="195" type="curve" smooth="yes"/>
			<point x="13" y="131"/>
			<point x="25" y="99"/>
		</contour>
		<contour>
			<point x="234" y="40" type="curve" smooth="yes"/>
			<point x="184" y="40"/>
			<point x="146" y="58"/>
			<point x="146" y="99" type="curve" smooth="yes"/>
			<point x="146" y="139"/>
			<point x="210" y="186"/>
			<point x="276" y="186" type="curve" smooth="yes"/>
			<point x="322" y="186"/>
			<point x="370" y="156"/>
			<point x="428" y="121" type="curve"/>
			<point x="386" y="71"/>
			<point x="300" y="40"/>
		</contour>
		<contour>
			<point x="266" y="107" type="curve" smooth="yes"/>
			<point x="260" y="107"/>
			<point x="260" y="116"/>
			<point x="261" y="126" type="curve" smooth="yes"/>
			<point x="262" y="133"/>
			<point x="266" y="140"/>
			<point x="265" y="155" type="curve" smooth="yes"/>
			<point x="263" y="177"/>
			<point x="246" y="184"/>
			<point x="213" y="173" type="curve"/>
			<point x="236" y="188"/>
			<point x="298" y="194"/>
			<point x="311" y="181" type="curve"/>
			<point x="257" y="195"/>
			<point x="266" y="150"/>
			<point x="270" y="125" type="curve" smooth="yes"/>
			<point x="271" y="119"/>
			<point x="271" y="107"/>
		</contour>
		<contour>
			<point x="542" y="86" type="curve"/>
			<point x="519" y="101"/>
			<point x="511" y="104"/>
			<point x="511" y="123" type="curve" smooth="yes"/>
			<point x="511" y="189"/>
			<point x="506" y="181"/>
			<point x="538" y="192" type="curve"/>
			<point x="479" y="188" type="line"/>
			<point x="510" y="184"/>
			<point x="508" y="178"/>
			<point x="509" y="147" type="curve" smooth="yes"/>
			<point x="510" y="126"/>
			<point x="512" y="104"/>
			<point x="495" y="116" type="curve"/>
			<point x="507" y="106"/>
			<point x="529" y="84"/>
		</contour>
		<contour>
			<point x="774" y="2" type="curve" smooth="yes"/>
			<point x="849" y="2"/>
			<point x="913" y="21"/>
			<point x="913" y="60" type="curve" smooth="yes"/>
			<point x="913" y="95"/>
			<point x="871" y="138"/>
			<point x="785" y="153" type="curve"/>
			<point x="785" y="150" type="line"/>
			<point x="869" y="131"/>
			<point x="882" y="95"/>
			<point x="882" y="64" type="curve" smooth="yes"/>
			<point x="882" y="34"/>
			<point x="854" y="10"/>
			<point x="793" y="10" type="curve" smooth="yes"/>
			<point x="685" y="10"/>
			<point x="612" y="44"/>
			<point x="549" y="82" type="curve" smooth="yes"/>
			<point x="516" y="102"/>
			<point x="485" y="123"/>
			<point x="453" y="142" type="curve"/>
			<point x="461" y="157"/>
			<point x="467" y="173"/>
			<point x="468" y="189" type="curve"/>
			<point x="484" y="186"/>
			<point x="501" y="186"/>
			<point x="519" y="188" type="curve" smooth="yes"/>
			<point x="584" y="195"/>
			<point x="615" y="255"/>
			<point x="615" y="316" type="curve" smooth="yes"/>
			<point x="615" y="381"/>
			<point x="579" y="447"/>
			<point x="509" y="447" type="curve" smooth="yes"/>
			<point x="453" y="447"/>
			<point x="390" y="418"/>
			<point x="390" y="347" type="curve" smooth="yes"/>
			<point x="390" y="307"/>
			<point x="422" y="270"/>
			<point x="442" y="235" type="curve" smooth="yes"/>
			<point x="445" y="230"/>
			<point x="447" y="226"/>
			<point x="449" y="221" type="curve"/>
			<point x="402" y="231"/>
			<point x="354" y="258"/>
			<point x="319" y="303" type="curve"/>
			<point x="317" y="301" type="line"/>
			<point x="368" y="236"/>
			<point x="411" y="204"/>
			<point x="456" y="192" type="curve"/>
			<point x="457" y="176"/>
			<point x="453" y="160"/>
			<point x="446" y="146" type="curve"/>
			<point x="398" y="174"/>
			<point x="347" y="194"/>
			<point x="280" y="194" type="curve" smooth="yes"/>
			<point x="182" y="194"/>
			<point x="89" y="104"/>
			<point x="89" y="48" type="curve" smooth="yes"/>
			<point x="89" y="22"/>
			<point x="108" y="4"/>
			<point x="154" y="4" type="curve" smooth="yes"/>
			<point x="247" y="4"/>
			<point x="376" y="46"/>
			<point x="435" y="116" type="curve"/>
			<point x="521" y="64"/>
			<point x="627" y="2"/>
		</contour>
		<contour>
			<point x="466" y="219" type="curve"/>
			<point x="463" y="232" type="line" smooth="yes"/>
			<point x="450" y="274"/>
			<point x="429" y="320"/>
			<point x="429" y="361" type="curve" smooth="yes"/>
			<point x="429" y="404"/>
			<point x="447" y="441"/>
			<point x="501" y="441" type="curve" smooth="yes"/>
			<point x="566" y="441"/>
			<point x="607" y="386"/>
			<point x="607" y="330" type="curve" smooth="yes"/>
			<point x="607" y="249"/>
			<point x="541" y="211"/>
		</contour>
		<contour>
			<point x="484" y="326" type="curve" smooth="yes"/>
			<point x="473" y="326"/>
			<point x="476" y="356"/>
			<point x="481" y="381" type="curve" smooth="yes"/>
			<point x="490" y="427"/>
			<point x="487" y="448"/>
			<point x="453" y="427" type="curve"/>
			<point x="472" y="446"/>
			<point x="496" y="447"/>
			<point x="517" y="440" type="curve"/>
			<point x="487" y="442"/>
			<point x="485" y="435"/>
			<point x="492" y="378" type="curve" smooth="yes"/>
			<point x="495" y="355"/>
			<point x="498" y="326"/>
		</contour>
		<contour>
			<point x="389" y="657" type="line"/>
			<point x="502" y="535" type="line"/>
			<point x="537" y="560" type="line"/>
			<point x="538" y="563"/>
			<point x="538" y="566"/>
			<point x="537" y="570" type="curve" smooth="yes"/>
			<point x="536" y="573"/>
			<point x="535" y="576"/>
			<point x="535" y="579" type="curve" smooth="yes"/>
			<point x="535" y="585"/>
			<point x="539" y="590"/>
			<point x="546" y="595" type="curve" smooth="yes"/>
			<point x="640" y="654"/>
			<point x="790" y="780"/>
			<point x="790" y="832" type="curve"/>
			<point x="858" y="891" type="line"/>
			<point x="825" y="934" type="line"/>
			<point x="828" y="919"/>
			<point x="830" y="909"/>
			<point x="830" y="902" type="curve" smooth="yes"/>
			<point x="830" y="875"/>
			<point x="814" y="868"/>
			<point x="770" y="868" type="curve" smooth="yes"/>
			<point x="762" y="868"/>
			<point x="743" y="869"/>
			<point x="712" y="870" type="curve" smooth="yes"/>
			<point x="649" y="873"/>
			<point x="600" y="875"/>
			<point x="565" y="874" type="curve"/>
			<point x="565" y="846" type="line"/>
			<point x="701" y="846" type="line" smooth="yes"/>
			<point x="720" y="846"/>
			<point x="730" y="839"/>
			<point x="730" y="825" type="curve" smooth="yes"/>
			<point x="730" y="748"/>
			<point x="599" y="622"/>
			<point x="525" y="622" type="curve" smooth="yes"/>
			<point x="490" y="622"/>
			<point x="481" y="632"/>
			<point x="470" y="653" type="curve" smooth="yes"/>
			<point x="465" y="664"/>
			<point x="459" y="671"/>
			<point x="454" y="675" type="curve"/>
			<point x="454" y="954" type="line"/>
			<point x="450" y="957"/>
			<point x="445" y="961"/>
			<point x="438" y="966" type="curve" smooth="yes"/>
			<point x="431" y="971"/>
			<point x="425" y="978"/>
			<point x="419" y="987" type="curve"/>
			<point x="141" y="987" type="line"/>
			<point x="150" y="982"/>
			<point x="163" y="978"/>
			<point x="179" y="975" type="curve" smooth="yes"/>
			<point x="194" y="972"/>
			<point x="204" y="970"/>
			<point x="207" y="969" type="curve" smooth="yes"/>
			<point x="234" y="964"/>
			<point x="255" y="958"/>
			<point x="270" y="952" type="curve" smooth="yes"/>
			<point x="285" y="946"/>
			<point x="292" y="937"/>
			<point x="292" y="926" type="curve" smooth="yes"/>
			<point x="292" y="921"/>
			<point x="291" y="915"/>
			<point x="288" y="910" type="curve" smooth="yes"/>
			<point x="282" y="896"/>
			<point x="279" y="887"/>
			<point x="279" y="884" type="curve" smooth="yes"/>
			<point x="279" y="882"/>
			<point x="280" y="881"/>
			<point x="281" y="881" type="curve" smooth="yes"/>
			<point x="286" y="881"/>
			<point x="304" y="896"/>
			<point x="307" y="899" type="curve" smooth="yes"/>
			<point x="324" y="914"/>
			<point x="335" y="921"/>
			<point x="340" y="921" type="curve" smooth="yes"/>
			<point x="343" y="921"/>
			<point x="345" y="919"/>
			<point x="345" y="914" type="curve" smooth="yes"/>
			<point x="345" y="873"/>
			<point x="340" y="857"/>
			<point x="307" y="836" type="curve" smooth="yes"/>
			<point x="302" y="833"/>
			<point x="300" y="831"/>
			<point x="301" y="831" type="curve" smooth="yes"/>
			<point x="302" y="831"/>
			<point x="309" y="833"/>
			<point x="321" y="837" type="curve" smooth="yes"/>
			<point x="333" y="841"/>
			<point x="345" y="843"/>
			<point x="357" y="843" type="curve" smooth="yes"/>
			<point x="378" y="843"/>
			<point x="389" y="833"/>
			<point x="389" y="814" type="curve" smooth="yes"/>
		</contour>
		<contour>
			<point x="930" y="115" type="curve" smooth="yes"/>
			<point x="971" y="115"/>
			<point x="993" y="165"/>
			<point x="993" y="239" type="curve" smooth="yes"/>
			<point x="993" y="297"/>
			<point x="975" y="343"/>
			<point x="948" y="372" type="curve"/>
			<point x="921" y="341" type="line"/>
			<point x="959" y="312"/>
			<point x="988" y="270"/>
			<point x="988" y="228" type="curve" smooth="yes"/>
			<point x="988" y="183"/>
			<point x="969" y="142"/>
			<point x="924" y="142" type="curve" smooth="yes"/>
			<point x="821" y="142"/>
			<point x="789" y="322"/>
			<point x="789" y="500" type="curve" smooth="yes"/>
			<point x="789" y="524"/>
			<point x="790" y="547"/>
			<point x="791" y="570" type="curve"/>
			<point x="902" y="604"/>
			<point x="994" y="628"/>
			<point x="994" y="766" type="curve" smooth="yes"/>
			<point x="994" y="820"/>
			<point x="981" y="891"/>
			<point x="934" y="891" type="curve" smooth="yes"/>
			<point x="868" y="891"/>
			<point x="777" y="741"/>
			<point x="757" y="567" type="curve"/>
			<point x="571" y="528"/>
			<point x="546" y="516"/>
			<point x="534" y="500" type="curve"/>
			<point x="558" y="474" type="line"/>
			<point x="575" y="504"/>
			<point x="614" y="534"/>
			<point x="756" y="562" type="curve"/>
			<point x="754" y="542"/>
			<point x="753" y="521"/>
			<point x="753" y="500" type="curve" smooth="yes"/>
			<point x="753" y="301"/>
			<point x="851" y="115"/>
		</contour>
		<contour>
			<point x="791" y="575" type="curve"/>
			<point x="800" y="731"/>
			<point x="838" y="860"/>
			<point x="930" y="860" type="curve" smooth="yes"/>
			<point x="972" y="860"/>
			<point x="988" y="822"/>
			<point x="988" y="780" type="curve" smooth="yes"/>
			<point x="988" y="697"/>
			<point x="910" y="613"/>
		</contour>
	</outline>
</glyph>
<glyph name="B_B.ss02_ss03" format="2">
	<advance width="1000"/>
	<note>
		B_B.ss02_ss03
  </note>
	<outline>
		<contour>
			<point x="921" y="128" type="curve" smooth="yes"/>
			<point x="984" y="128"/>
			<point x="996" y="230"/>
			<point x="996" y="288" type="curve" smooth="yes"/>
			<point x="996" y="422"/>
			<point x="892" y="448"/>
			<point x="811" y="473" type="curve"/>
			<point x="905" y="476"/>
			<point x="1001" y="514"/>
			<point x="987" y="588" type="curve"/>
			<point x="944" y="602" type="line"/>
			<point x="944" y="498"/>
			<point x="880" y="476"/>
			<point x="799" y="477" type="curve"/>
			<point x="779" y="495"/>
			<point x="761" y="506"/>
			<point x="750" y="506" type="curve" smooth="yes"/>
			<point x="741" y="506"/>
			<point x="735" y="500"/>
			<point x="735" y="493" type="curve" smooth="yes"/>
			<point x="735" y="476"/>
			<point x="759" y="474"/>
			<point x="781" y="473" type="curve" smooth="yes"/>
			<point x="801" y="473" type="line"/>
			<point x="890" y="440"/>
			<point x="990" y="353"/>
			<point x="990" y="270" type="curve" smooth="yes"/>
			<point x="990" y="214"/>
			<point x="971" y="160"/>
			<point x="914" y="160" type="curve" smooth="yes"/>
			<point x="786" y="160"/>
			<point x="682" y="361"/>
			<point x="678" y="500" type="curve" smooth="yes"/>
			<point x="678" y="508"/>
			<point x="678" y="516"/>
			<point x="678" y="524" type="curve"/>
			<point x="894" y="577"/>
			<point x="991" y="659"/>
			<point x="991" y="777" type="curve" smooth="yes"/>
			<point x="991" y="825"/>
			<point x="967" y="860"/>
			<point x="920" y="860" type="curve" smooth="yes"/>
			<point x="833" y="860"/>
			<point x="664" y="642"/>
			<point x="645" y="520" type="curve"/>
			<point x="608" y="512"/>
			<point x="568" y="505"/>
			<point x="525" y="500" type="curve"/>
			<point x="526" y="494" type="line"/>
			<point x="568" y="501"/>
			<point x="608" y="508"/>
			<point x="644" y="516" type="curve"/>
			<point x="643" y="510"/>
			<point x="643" y="504"/>
			<point x="643" y="499" type="curve" smooth="yes"/>
			<point x="643" y="388"/>
			<point x="830" y="128"/>
		</contour>
		<contour>
			<point x="176" y="859" type="curve"/>
			<point x="506" y="525" type="line"/>
			<point x="617" y="648" type="line"/>
			<point x="582" y="645" type="line"/>
			<point x="632" y="690"/>
			<point x="766" y="778"/>
			<point x="766" y="814" type="curve" smooth="yes"/>
			<point x="766" y="827"/>
			<point x="748" y="834"/>
			<point x="712" y="834" type="curve" smooth="yes"/>
			<point x="382" y="837"/>
			<point x="553" y="835"/>
			<point x="354" y="835" type="curve" smooth="yes"/>
			<point x="316" y="835" type="line"/>
			<point x="206" y="939" type="line"/>
			<point x="235" y="957"/>
			<point x="240" y="961"/>
			<point x="250" y="961" type="curve" smooth="yes"/>
			<point x="303" y="961"/>
			<point x="421" y="889"/>
			<point x="479" y="889" type="curve" smooth="yes"/>
			<point x="523" y="889"/>
			<point x="513" y="942"/>
			<point x="542" y="942" type="curve" smooth="yes"/>
			<point x="552" y="942"/>
			<point x="564" y="926"/>
			<point x="574" y="930" type="curve"/>
			<point x="574" y="983" type="line"/>
			<point x="505" y="983" type="line"/>
			<point x="500" y="968"/>
			<point x="478" y="944"/>
			<point x="457" y="944" type="curve" smooth="yes"/>
			<point x="436" y="944"/>
			<point x="364" y="959"/>
			<point x="318" y="969" type="curve" smooth="yes"/>
			<point x="265" y="981"/>
			<point x="233" y="987"/>
			<point x="220" y="987" type="curve" smooth="yes"/>
			<point x="194" y="987"/>
			<point x="190" y="989"/>
			<point x="146" y="959" type="curve" smooth="yes"/>
			<point x="124" y="944"/>
			<point x="131" y="925"/>
			<point x="155" y="894" type="curve" smooth="yes"/>
			<point x="167" y="878"/>
			<point x="184" y="866"/>
		</contour>
		<contour>
			<point x="526" y="704" type="curve" smooth="yes"/>
			<point x="501" y="704"/>
			<point x="488" y="716"/>
			<point x="487" y="739" type="curve"/>
			<point x="415" y="739" type="line"/>
			<point x="355" y="799" type="line"/>
			<point x="439" y="811"/>
			<point x="542" y="812"/>
			<point x="566" y="812" type="curve" smooth="yes"/>
			<point x="612" y="812"/>
			<point x="690" y="806"/>
			<point x="690" y="781" type="curve" smooth="yes"/>
			<point x="690" y="758"/>
			<point x="570" y="704"/>
		</contour>
		<contour>
			<point x="679" y="529" type="curve"/>
			<point x="690" y="665"/>
			<point x="802" y="830"/>
			<point x="928" y="830" type="curve" smooth="yes"/>
			<point x="964" y="830"/>
			<point x="985" y="806"/>
			<point x="985" y="776" type="curve" smooth="yes"/>
			<point x="985" y="717"/>
			<point x="901" y="591"/>
		</contour>
	</outline>
</glyph>
<glyph name="D.ss04" format="2">
	<advance width="1000"/>
	<note>
		D.ss04
  </note>
	<outline>
		<contour>
			<point x="470" y="0" type="curve" smooth="yes"/>
			<point x="720" y="0"/>
			<point x="851" y="105"/>
			<point x="701" y="291" type="curve" smooth="yes"/>
			<point x="646" y="360"/>
			<point x="555" y="418"/>
			<point x="458" y="436" type="curve" smooth="yes"/>
			<point x="452" y="437"/>
			<point x="448" y="436"/>
			<point x="444" y="433" type="curve"/>
			<point x="428" y="417" type="line" smooth="yes"/>
			<point x="422" y="411"/>
			<point x="424" y="406"/>
			<point x="432" y="405" type="curve" smooth="yes"/>
			<point x="456" y="402"/>
			<point x="457" y="389"/>
			<point x="458" y="363" type="curve" smooth="yes"/>
			<point x="460" y="327"/>
			<point x="459" y="308"/>
			<point x="444" y="307" type="curve" smooth="yes"/>
			<point x="224" y="287"/>
			<point x="68" y="89"/>
			<point x="280" y="23" type="curve" smooth="yes"/>
			<point x="328" y="8"/>
			<point x="392" y="0"/>
		</contour>
		<contour>
			<point x="489" y="8" type="curve" smooth="yes"/>
			<point x="414" y="8"/>
			<point x="371" y="18"/>
			<point x="327" y="35" type="curve" smooth="yes"/>
			<point x="148" y="104"/>
			<point x="241" y="291"/>
			<point x="438" y="291" type="curve" smooth="yes"/>
			<point x="484" y="291"/>
			<point x="541" y="283"/>
			<point x="587" y="261" type="curve" smooth="yes"/>
			<point x="616" y="247"/>
			<point x="620" y="219"/>
			<point x="612" y="187" type="curve" smooth="yes"/>
			<point x="607" y="166"/>
			<point x="606" y="141"/>
			<point x="615" y="142" type="curve" smooth="yes"/>
			<point x="626" y="143"/>
			<point x="624" y="165"/>
			<point x="621" y="185" type="curve" smooth="yes"/>
			<point x="615" y="224"/>
			<point x="619" y="244"/>
			<point x="636" y="225" type="curve" smooth="yes"/>
			<point x="654" y="205"/>
			<point x="661" y="179"/>
			<point x="656" y="149" type="curve" smooth="yes"/>
			<point x="655" y="144"/>
			<point x="661" y="141"/>
			<point x="664" y="145" type="curve" smooth="yes"/>
			<point x="689" y="175"/>
			<point x="700" y="200"/>
			<point x="700" y="221" type="curve" smooth="yes"/>
			<point x="700" y="288"/>
			<point x="591" y="310"/>
			<point x="488" y="309" type="curve" smooth="yes"/>
			<point x="465" y="309"/>
			<point x="462" y="322"/>
			<point x="462" y="339" type="curve" smooth="yes"/>
			<point x="462" y="405"/>
			<point x="455" y="405"/>
			<point x="491" y="400" type="curve" smooth="yes"/>
			<point x="591" y="384"/>
			<point x="660" y="336"/>
			<point x="699" y="283" type="curve" smooth="yes"/>
			<point x="794" y="152"/>
			<point x="661" y="8"/>
		</contour>
	</outline>
</glyph>
<glyph name="E.ss01" format="2">
	<advance width="1000"/>
	<note>
		E.ss01
  </note>
	<outline>
		<contour>
			<point x="72" y="95" type="curve" smooth="yes"/>
			<point x="149" y="95"/>
			<point x="173" y="401"/>
			<point x="456" y="480" type="curve"/>
			<point x="455" y="487" type="line"/>
			<point x="217" y="429"/>
			<point x="188" y="248"/>
			<point x="102" y="248" type="curve" smooth="yes"/>
			<point x="67" y="248"/>
			<point x="49" y="298"/>
			<point x="44" y="435" type="curve"/>
			<point x="104" y="516"/>
			<point x="321" y="497"/>
			<point x="321" y="602" type="curve" smooth="yes"/>
			<point x="321" y="676"/>
			<point x="118" y="863"/>
			<point x="59" y="863" type="curve" smooth="yes"/>
			<point x="13" y="863"/>
			<point x="16" y="656"/>
			<point x="16" y="537" type="curve" smooth="yes"/>
			<point x="16" y="324"/>
			<point x="24" y="95"/>
		</contour>
		<contour>
			<point x="43" y="455" type="curve"/>
			<point x="42" y="478"/>
			<point x="42" y="504"/>
			<point x="42" y="533" type="curve" smooth="yes"/>
			<point x="42" y="672"/>
			<point x="55" y="782"/>
			<point x="127" y="782" type="curve" smooth="yes"/>
			<point x="175" y="782"/>
			<point x="240" y="717"/>
			<point x="240" y="623" type="curve" smooth="yes"/>
			<point x="240" y="513"/>
			<point x="97" y="529"/>
		</contour>
	</outline>
</glyph>
<glyph name="F.ss03" format="2">
	<advance width="1000"/>
	<note>
		F.ss03
  </note>
	<outline>
		<contour>
			<point x="921" y="128" type="curve" smooth="yes"/>
			<point x="984" y="128"/>
			<point x="996" y="230"/>
			<point x="996" y="288" type="curve" smooth="yes"/>
			<point x="996" y="422"/>
			<point x="892" y="448"/>
			<point x="811" y="473" type="curve"/>
			<point x="905" y="476"/>
			<point x="1001" y="514"/>
			<point x="987" y="588" type="curve"/>
			<point x="944" y="602" type="line"/>
			<point x="944" y="498"/>
			<point x="880" y="476"/>
			<point x="799" y="477" type="curve"/>
			<point x="779" y="495"/>
			<point x="761" y="506"/>
			<point x="750" y="506" type="curve" smooth="yes"/>
			<point x="741" y="506"/>
			<point x="735" y="500"/>
			<point x="735" y="493" type="curve" smooth="yes"/>
			<point x="735" y="476"/>
			<point x="759" y="474"/>
			<point x="781" y="473" type="curve" smooth="yes"/>
			<point x="801" y="473" type="line"/>
			<point x="890" y="440"/>
			<point x="990" y="353"/>
			<point x="990" y="270" type="curve" smooth="yes"/>
			<point x="990" y="214"/>
			<point x="971" y="160"/>
			<point x="914" y="160" type="curve" smooth="yes"/>
			<point x="786" y="160"/>
			<point x="682" y="361"/>
			<point x="678" y="500" type="curve" smooth="yes"/>
			<point x="678" y="508"/>
			<point x="678" y="516"/>
			<point x="678" y="524" type="curve"/>
			<point x="894" y="577"/>
			<point x="991" y="659"/>
			<point x="991" y="777" type="curve" smooth="yes"/>
			<point x="991" y="825"/>
			<point x="967" y="860"/>
			<point x="920" y="860" type="curve" smooth="yes"/>
			<point x="833" y="860"/>
			<point x="664" y="642"/>
			<point x="645" y="520" type="curve"/>
			<point x="608" y="512"/>
			<point x="568" y="505"/>
			<point x="525" y="500" type="curve"/>
			<point x="526" y="494" type="line"/>
			<point x="568" y="501"/>
			<point x="608" y="508"/>
			<point x="644" y="516" type="curve"/>
			<point x="643" y="510"/>
			<point x="643" y="504"/>
			<point x="643" y="499" type="curve" smooth="yes"/>
			<point x="643" y="388"/>
			<point x="830" y="128"/>
		</contour>
		<contour>
			<point x="679" y="529" type="curve"/>
			<point x="690" y="665"/>
			<point x="802" y="830"/>
			<point x="928" y="830" type="curve" smooth="yes"/>
			<point x="964" y="830"/>
			<point x="985" y="806"/>
			<point x="985" y="776" type="curve" smooth="yes"/>
			<point x="985" y="717"/>
			<point x="901" y="591"/>
		</contour>
	</outline>
</glyph>
<glyph name="J_J_J.ss01_ss02_ss03" format="2">
	<advance width="1000"/>
	<note>
		J_J_J.ss01_ss02_ss03
  </note>
	<outline>
		<contour>
			<point x="918" y="128" type="curve" smooth="yes"/>
			<point x="1034" y="128"/>
			<point x="996" y="352"/>
			<point x="967" y="599" type="curve"/>
			<point x="994" y="605" type="line"/>
			<point x="993" y="610" type="line"/>
			<point x="966" y="604" type="line"/>
			<point x="956" y="690"/>
			<point x="947" y="778"/>
			<point x="945" y="861" type="curve"/>
			<point x="967" y="872"/>
			<point x="987" y="891"/>
			<point x="987" y="910" type="curve" smooth="yes"/>
			<point x="987" y="924"/>
			<point x="979" y="932"/>
			<point x="965" y="932" type="curve" smooth="yes"/>
			<point x="930" y="932"/>
			<point x="919" y="889"/>
			<point x="922" y="856" type="curve"/>
			<point x="886" y="832"/>
			<point x="847" y="803"/>
			<point x="819" y="779" type="curve" smooth="yes"/>
			<point x="743" y="712"/>
			<point x="765" y="616"/>
			<point x="845" y="634" type="curve"/>
			<point x="853" y="672" type="line"/>
			<point x="810" y="675"/>
			<point x="792" y="689"/>
			<point x="792" y="709" type="curve" smooth="yes"/>
			<point x="792" y="762"/>
			<point x="844" y="793"/>
			<point x="922" y="849" type="curve"/>
			<point x="932" y="754"/>
			<point x="941" y="672"/>
			<point x="950" y="601" type="curve"/>
			<point x="707" y="550"/>
			<point x="669" y="540"/>
			<point x="644" y="509" type="curve" smooth="yes"/>
			<point x="571" y="419"/>
			<point x="838" y="128"/>
		</contour>
		<contour>
			<point x="25" y="66" type="curve" smooth="yes"/>
			<point x="71" y="66"/>
			<point x="383" y="367"/>
			<point x="383" y="561" type="curve" smooth="yes"/>
			<point x="383" y="693"/>
			<point x="83" y="636"/>
			<point x="176" y="796" type="curve"/>
			<point x="169" y="801" type="line"/>
			<point x="89" y="676" type="line"/>
			<point x="92" y="673" type="line"/>
			<point x="175" y="680"/>
			<point x="309" y="670"/>
			<point x="309" y="501" type="curve" smooth="yes"/>
			<point x="309" y="361"/>
			<point x="189" y="219"/>
			<point x="129" y="219" type="curve" smooth="yes"/>
			<point x="81" y="219"/>
			<point x="77" y="299"/>
			<point x="88" y="344" type="curve" smooth="yes"/>
			<point x="101" y="396"/>
			<point x="124" y="415"/>
			<point x="232" y="391" type="curve"/>
			<point x="236" y="400" type="line"/>
			<point x="35" y="449" type="line"/>
			<point x="114" y="181"/>
			<point x="-13" y="66"/>
		</contour>
		<contour>
			<point x="97" y="773" type="curve" smooth="yes"/>
			<point x="120" y="773"/>
			<point x="126" y="804"/>
			<point x="109" y="843" type="curve" smooth="yes"/>
			<point x="92" y="882"/>
			<point x="60" y="913"/>
			<point x="37" y="913" type="curve" smooth="yes"/>
			<point x="14" y="913"/>
			<point x="8" y="882"/>
			<point x="25" y="843" type="curve" smooth="yes"/>
			<point x="42" y="804"/>
			<point x="74" y="773"/>
		</contour>
		<contour>
			<point x="907" y="162" type="curve" smooth="yes"/>
			<point x="835" y="162"/>
			<point x="664" y="320"/>
			<point x="664" y="432" type="curve" smooth="yes"/>
			<point x="664" y="524"/>
			<point x="773" y="556"/>
			<point x="950" y="595" type="curve"/>
			<point x="993" y="234"/>
			<point x="1009" y="162"/>
		</contour>
		<contour>
			<point x="495" y="567" type="curve" smooth="yes"/>
			<point x="507" y="567"/>
			<point x="516" y="567"/>
			<point x="534" y="574" type="curve" smooth="yes"/>
			<point x="581" y="592"/>
			<point x="684" y="711"/>
			<point x="948" y="969" type="curve"/>
			<point x="934" y="989" type="line"/>
			<point x="924" y="968"/>
			<point x="907" y="954"/>
			<point x="882" y="946" type="curve" smooth="yes"/>
			<point x="857" y="938"/>
			<point x="831" y="934"/>
			<point x="803" y="934" type="curve" smooth="yes"/>
			<point x="790" y="934"/>
			<point x="765" y="936"/>
			<point x="768" y="936" type="curve"/>
			<point x="607" y="773"/>
			<point x="566" y="732"/>
			<point x="523" y="682" type="curve" smooth="yes"/>
			<point x="528" y="687" type="line"/>
			<point x="523" y="681"/>
			<point x="520" y="674"/>
			<point x="520" y="667" type="curve" smooth="yes"/>
			<point x="520" y="658"/>
			<point x="524" y="649"/>
			<point x="533" y="638" type="curve" smooth="yes"/>
			<point x="542" y="627"/>
			<point x="546" y="620"/>
			<point x="546" y="617" type="curve" smooth="yes"/>
			<point x="546" y="611"/>
			<point x="534" y="608"/>
			<point x="510" y="608" type="curve" smooth="yes"/>
			<point x="494" y="608"/>
			<point x="483" y="610"/>
			<point x="476" y="614" type="curve" smooth="yes"/>
			<point x="469" y="617"/>
			<point x="466" y="622"/>
			<point x="466" y="629" type="curve" smooth="yes"/>
			<point x="466" y="636"/>
			<point x="470" y="648"/>
			<point x="479" y="665" type="curve" smooth="yes"/>
			<point x="483" y="672"/>
			<point x="487" y="680"/>
			<point x="490" y="689" type="curve" smooth="yes"/>
			<point x="493" y="697"/>
			<point x="494" y="704"/>
			<point x="494" y="710" type="curve" smooth="yes"/>
			<point x="494" y="720"/>
			<point x="489" y="734"/>
			<point x="478" y="753" type="curve" smooth="yes"/>
			<point x="475" y="760"/>
			<point x="472" y="766"/>
			<point x="468" y="773" type="curve" smooth="yes"/>
			<point x="465" y="780"/>
			<point x="463" y="785"/>
			<point x="463" y="790" type="curve" smooth="yes"/>
			<point x="463" y="802"/>
			<point x="474" y="808"/>
			<point x="497" y="808" type="curve" smooth="yes"/>
			<point x="561" y="808"/>
			<point x="605" y="814"/>
			<point x="630" y="827" type="curve" smooth="yes"/>
			<point x="655" y="840"/>
			<point x="667" y="857"/>
			<point x="667" y="880" type="curve"/>
			<point x="572" y="880" type="line"/>
			<point x="572" y="868"/>
			<point x="559" y="836"/>
			<point x="548" y="830" type="curve" smooth="yes"/>
			<point x="537" y="825"/>
			<point x="521" y="822"/>
			<point x="498" y="822" type="curve" smooth="yes"/>
			<point x="469" y="822"/>
			<point x="446" y="820"/>
			<point x="428" y="814" type="curve" smooth="yes"/>
			<point x="410" y="809"/>
			<point x="396" y="798"/>
			<point x="384" y="780" type="curve" smooth="yes"/>
			<point x="373" y="763"/>
			<point x="367" y="737"/>
			<point x="367" y="704" type="curve" smooth="yes"/>
			<point x="367" y="655"/>
			<point x="381" y="620"/>
			<point x="408" y="599" type="curve" smooth="yes"/>
			<point x="435" y="578"/>
			<point x="456" y="567"/>
		</contour>
		<contour>
			<point x="802" y="957" type="curve" smooth="yes"/>
			<point x="847" y="957"/>
			<point x="884" y="967"/>
			<point x="884" y="983" type="curve" smooth="yes"/>
			<point x="884" y="998"/>
			<point x="847" y="1008"/>
			<point x="802" y="1008" type="curve" smooth="yes"/>
			<point x="756" y="1008"/>
			<point x="719" y="998"/>
			<point x="719" y="983" type="curve" smooth="yes"/>
			<point x="719" y="967"/>
			<point x="756" y="957"/>
		</contour>
	</outline>
</glyph>
<glyph name="M_M.ss03_ss04" format="2">
	<advance width="1000"/>
	<note>
		M_M.ss03_ss04
  </note>
	<outline>
		<contour>
			<point x="21" y="4" type="curve"/>
			<point x="21" y="0" type="line"/>
			<point x="210" y="69"/>
			<point x="248" y="133"/>
			<point x="277" y="199" type="curve" smooth="yes"/>
			<point x="287" y="221"/>
			<point x="300" y="243"/>
			<point x="315" y="263" type="curve" smooth="yes"/>
			<point x="339" y="290"/>
			<point x="340" y="278"/>
			<point x="332" y="235" type="curve" smooth="yes"/>
			<point x="327" y="208"/>
			<point x="324" y="180"/>
			<point x="335" y="180" type="curve" smooth="yes"/>
			<point x="349" y="180"/>
			<point x="346" y="209"/>
			<point x="343" y="232" type="curve" smooth="yes"/>
			<point x="337" y="280"/>
			<point x="341" y="297"/>
			<point x="370" y="320" type="curve" smooth="yes"/>
			<point x="391" y="336"/>
			<point x="411" y="344"/>
			<point x="427" y="342" type="curve"/>
			<point x="461" y="328"/>
			<point x="449" y="281"/>
			<point x="446" y="262" type="curve" smooth="yes"/>
			<point x="445" y="256"/>
			<point x="445" y="244"/>
			<point x="450" y="244" type="curve" smooth="yes"/>
			<point x="456" y="244"/>
			<point x="456" y="253"/>
			<point x="455" y="263" type="curve" smooth="yes"/>
			<point x="449" y="324"/>
			<point x="454" y="337"/>
			<point x="472" y="298" type="curve" smooth="yes"/>
			<point x="511" y="204"/>
			<point x="398" y="30"/>
			<point x="230" y="4" type="curve"/>
			<point x="230" y="0" type="line"/>
			<point x="493" y="32"/>
			<point x="562" y="208"/>
			<point x="474" y="316" type="curve"/>
			<point x="489" y="344"/>
			<point x="468" y="459"/>
			<point x="501" y="459" type="curve" smooth="yes"/>
			<point x="553" y="459"/>
			<point x="553" y="297"/>
			<point x="553" y="211" type="curve" smooth="yes"/>
			<point x="553" y="109"/>
			<point x="600" y="88"/>
			<point x="676" y="0" type="curve"/>
			<point x="681" y="0" type="line"/>
			<point x="627" y="62"/>
			<point x="593" y="90"/>
			<point x="593" y="216" type="curve" smooth="yes"/>
			<point x="593" y="241"/>
			<point x="590" y="270"/>
			<point x="584" y="299" type="curve"/>
			<point x="592" y="317"/>
			<point x="610" y="325"/>
			<point x="631" y="323" type="curve" smooth="yes"/>
			<point x="636" y="322" type="line" smooth="yes"/>
			<point x="639" y="322"/>
			<point x="643" y="321"/>
			<point x="646" y="320" type="curve" smooth="yes"/>
			<point x="671" y="311"/>
			<point x="673" y="288"/>
			<point x="667" y="244" type="curve" smooth="yes"/>
			<point x="664" y="221"/>
			<point x="661" y="192"/>
			<point x="675" y="192" type="curve" smooth="yes"/>
			<point x="686" y="192"/>
			<point x="683" y="222"/>
			<point x="678" y="247" type="curve" smooth="yes"/>
			<point x="670" y="287"/>
			<point x="671" y="311"/>
			<point x="697" y="287" type="curve" smooth="yes"/>
			<point x="797" y="192"/>
			<point x="723" y="47"/>
			<point x="973" y="0" type="curve"/>
			<point x="973" y="6" type="line"/>
			<point x="819" y="40"/>
			<point x="793" y="248"/>
			<point x="678" y="315" type="curve" smooth="yes"/>
			<point x="638" y="339"/>
			<point x="601" y="334"/>
			<point x="582" y="309" type="curve"/>
			<point x="563" y="398"/>
			<point x="524" y="486"/>
			<point x="495" y="485" type="curve" smooth="yes"/>
			<point x="455" y="483"/>
			<point x="486" y="398"/>
			<point x="457" y="340" type="curve"/>
			<point x="438" y="375"/>
			<point x="469" y="400"/>
			<point x="457" y="403" type="curve" smooth="yes"/>
			<point x="445" y="406"/>
			<point x="447" y="464"/>
			<point x="433" y="421" type="curve" smooth="yes"/>
			<point x="420" y="375"/>
			<point x="446" y="357"/>
			<point x="453" y="337" type="curve"/>
			<point x="446" y="344"/>
			<point x="437" y="350"/>
			<point x="428" y="356" type="curve" smooth="yes"/>
			<point x="377" y="389"/>
			<point x="277" y="288"/>
			<point x="250" y="216" type="curve" smooth="yes"/>
			<point x="223" y="144"/>
			<point x="190" y="64"/>
		</contour>
		<contour>
			<point x="917" y="135" type="curve" smooth="yes"/>
			<point x="956" y="135"/>
			<point x="994" y="171"/>
			<point x="984" y="212" type="curve"/>
			<point x="946" y="207" type="line"/>
			<point x="948" y="191"/>
			<point x="944" y="147"/>
			<point x="909" y="147" type="curve" smooth="yes"/>
			<point x="862" y="147"/>
			<point x="813" y="196"/>
			<point x="813" y="240" type="curve" smooth="yes"/>
			<point x="813" y="318"/>
			<point x="911" y="271"/>
			<point x="969" y="329" type="curve" smooth="yes"/>
			<point x="988" y="349"/>
			<point x="996" y="373"/>
			<point x="996" y="401" type="curve" smooth="yes"/>
			<point x="996" y="500"/>
			<point x="900" y="489"/>
			<point x="814" y="457" type="curve"/>
			<point x="896" y="503"/>
			<point x="994" y="534"/>
			<point x="994" y="645" type="curve" smooth="yes"/>
			<point x="994" y="695"/>
			<point x="960" y="726"/>
			<point x="909" y="726" type="curve" smooth="yes"/>
			<point x="865" y="726"/>
			<point x="793" y="673"/>
			<point x="652" y="570" type="curve"/>
			<point x="650" y="572" type="line"/>
			<point x="732" y="644"/>
			<point x="845" y="744"/>
			<point x="848" y="746" type="curve" smooth="yes"/>
			<point x="890" y="782"/>
			<point x="933" y="813"/>
			<point x="933" y="851" type="curve" smooth="yes"/>
			<point x="933" y="867"/>
			<point x="927" y="882"/>
			<point x="919" y="888" type="curve"/>
			<point x="870" y="865" type="line"/>
			<point x="880" y="859"/>
			<point x="886" y="844"/>
			<point x="886" y="828" type="curve" smooth="yes"/>
			<point x="886" y="795"/>
			<point x="852" y="761"/>
			<point x="824" y="736" type="curve" smooth="yes"/>
			<point x="754" y="675"/>
			<point x="612" y="540"/>
			<point x="575" y="519" type="curve"/>
			<point x="566" y="521"/>
			<point x="558" y="522"/>
			<point x="551" y="522" type="curve" smooth="yes"/>
			<point x="531" y="522"/>
			<point x="519" y="515"/>
			<point x="519" y="501" type="curve" smooth="yes"/>
			<point x="519" y="491"/>
			<point x="529" y="485"/>
			<point x="538" y="485" type="curve" smooth="yes"/>
			<point x="548" y="485"/>
			<point x="559" y="491"/>
			<point x="568" y="498" type="curve" smooth="yes"/>
			<point x="783" y="665"/>
			<point x="839" y="691"/>
			<point x="885" y="691" type="curve" smooth="yes"/>
			<point x="938" y="691"/>
			<point x="976" y="665"/>
			<point x="976" y="614" type="curve" smooth="yes"/>
			<point x="976" y="551"/>
			<point x="897" y="510"/>
			<point x="800" y="456" type="curve"/>
			<point x="798" y="456"/>
			<point x="797" y="456"/>
			<point x="795" y="456" type="curve" smooth="yes"/>
			<point x="788" y="455" type="line" smooth="yes"/>
			<point x="758" y="451"/>
			<point x="740" y="452"/>
			<point x="735" y="437" type="curve" smooth="yes"/>
			<point x="732" y="428"/>
			<point x="736" y="419"/>
			<point x="745" y="416" type="curve" smooth="yes"/>
			<point x="758" y="411"/>
			<point x="775" y="421"/>
			<point x="804" y="449" type="curve"/>
			<point x="804" y="450" type="line"/>
			<point x="876" y="466"/>
			<point x="989" y="470"/>
			<point x="989" y="404" type="curve" smooth="yes"/>
			<point x="989" y="382"/>
			<point x="977" y="363"/>
			<point x="956" y="347" type="curve" smooth="yes"/>
			<point x="916" y="314"/>
			<point x="851" y="330"/>
			<point x="820" y="297" type="curve" smooth="yes"/>
			<point x="808" y="282"/>
			<point x="804" y="261"/>
			<point x="804" y="245" type="curve" smooth="yes"/>
			<point x="804" y="194"/>
			<point x="868" y="135"/>
		</contour>
	</outline>
</glyph>
<glyph name="N.ss02" format="2">
	<advance width="1000"/>
	<note>
		N.ss02
  </note>
	<outline>
		<contour>
			<point x="63" y="977" type="line"/>
			<point x="497" y="544" type="line"/>
			<point x="601" y="647" type="line"/>
			<point x="565" y="677"/>
			<point x="523" y="695"/>
			<point x="471" y="711" type="curve"/>
			<point x="528" y="711"/>
			<point x="578" y="713"/>
			<point x="622" y="718" type="curve" smooth="yes"/>
			<point x="707" y="728"/>
			<point x="792" y="758"/>
			<point x="807" y="835" type="curve" smooth="yes"/>
			<point x="823" y="944"/>
			<point x="659" y="968"/>
			<point x="491" y="968" type="curve" smooth="yes"/>
			<point x="362" y="968"/>
			<point x="285" y="959"/>
			<point x="281" y="859" type="curve" smooth="yes"/>
			<point x="279" y="836"/>
			<point x="282" y="825"/>
			<point x="270" y="811" type="curve"/>
			<point x="239" y="851"/>
			<point x="223" y="906"/>
			<point x="223" y="977" type="curve"/>
		</contour>
		<contour>
			<point x="469" y="712" type="curve" smooth="yes"/>
			<point x="467" y="712"/>
			<point x="443" y="720"/>
			<point x="443" y="720" type="curve"/>
			<point x="395" y="734"/>
			<point x="353" y="748"/>
			<point x="314" y="773" type="curve"/>
			<point x="315" y="775"/>
			<point x="315" y="778"/>
			<point x="315" y="781" type="curve" smooth="yes"/>
			<point x="315" y="797"/>
			<point x="299" y="828"/>
			<point x="299" y="852" type="curve" smooth="yes"/>
			<point x="299" y="909"/>
			<point x="401" y="916"/>
			<point x="491" y="916" type="curve" smooth="yes"/>
			<point x="614" y="916"/>
			<point x="749" y="889"/>
			<point x="749" y="824" type="curve" smooth="yes"/>
			<point x="749" y="762"/>
			<point x="588" y="726"/>
		</contour>
	</outline>
</glyph>
<glyph name="OE_OE.ss03_ss04" format="2">
	<advance width="1000"/>
	<note>
		OE_OE.ss03_ss04
  </note>
	<outline>
		<contour>
			<point x="536" y="0" type="curve" smooth="yes"/>
			<point x="615" y="0"/>
			<point x="679" y="8"/>
			<point x="726" y="23" type="curve" smooth="yes"/>
			<point x="776" y="38"/>
			<point x="803" y="65"/>
			<point x="811" y="96" type="curve"/>
			<point x="820" y="100"/>
			<point x="828" y="105"/>
			<point x="836" y="110" type="curve" smooth="yes"/>
			<point x="860" y="124"/>
			<point x="860" y="146"/>
			<point x="847" y="158" type="curve" smooth="yes"/>
			<point x="838" y="167"/>
			<point x="823" y="166"/>
			<point x="807" y="158" type="curve"/>
			<point x="783" y="229"/>
			<point x="700" y="307"/>
			<point x="600" y="344" type="curve"/>
			<point x="603" y="362"/>
			<point x="594" y="394"/>
			<point x="575" y="420" type="curve"/>
			<point x="589" y="421"/>
			<point x="605" y="422"/>
			<point x="620" y="422" type="curve"/>
			<point x="592" y="448" type="line"/>
			<point x="580" y="446"/>
			<point x="568" y="443"/>
			<point x="556" y="439" type="curve"/>
			<point x="541" y="452"/>
			<point x="522" y="460"/>
			<point x="501" y="460" type="curve" smooth="yes"/>
			<point x="466" y="460"/>
			<point x="422" y="432"/>
			<point x="418" y="387" type="curve"/>
			<point x="373" y="361"/>
			<point x="334" y="327"/>
			<point x="306" y="291" type="curve" smooth="yes"/>
			<point x="287" y="268"/>
			<point x="273" y="246"/>
			<point x="263" y="225" type="curve"/>
			<point x="196" y="192"/>
			<point x="149" y="148"/>
			<point x="149" y="95" type="curve" smooth="yes"/>
			<point x="149" y="36"/>
			<point x="238" y="2"/>
			<point x="379" y="2" type="curve" smooth="yes"/>
			<point x="405" y="2"/>
			<point x="432" y="3"/>
			<point x="459" y="4" type="curve"/>
			<point x="483" y="1"/>
			<point x="509" y="0"/>
		</contour>
		<contour>
			<point x="375" y="13" type="curve" smooth="yes"/>
			<point x="261" y="15"/>
			<point x="202" y="71"/>
			<point x="202" y="129" type="curve" smooth="yes"/>
			<point x="202" y="161"/>
			<point x="229" y="192"/>
			<point x="256" y="208" type="curve"/>
			<point x="220" y="111"/>
			<point x="284" y="41"/>
			<point x="404" y="14" type="curve"/>
			<point x="394" y="13"/>
			<point x="385" y="13"/>
		</contour>
		<contour>
			<point x="517" y="8" type="curve" smooth="yes"/>
			<point x="373" y="6"/>
			<point x="256" y="109"/>
			<point x="277" y="218" type="curve"/>
			<point x="283" y="220"/>
			<point x="288" y="221"/>
			<point x="293" y="221" type="curve" smooth="yes"/>
			<point x="310" y="221"/>
			<point x="323" y="213"/>
			<point x="323" y="188" type="curve" smooth="yes"/>
			<point x="323" y="180"/>
			<point x="322" y="169"/>
			<point x="320" y="157" type="curve" smooth="yes"/>
			<point x="315" y="130"/>
			<point x="312" y="102"/>
			<point x="323" y="102" type="curve" smooth="yes"/>
			<point x="337" y="102"/>
			<point x="333" y="131"/>
			<point x="331" y="154" type="curve" smooth="yes"/>
			<point x="328" y="194"/>
			<point x="328" y="227"/>
			<point x="356" y="242" type="curve" smooth="yes"/>
			<point x="400" y="266"/>
			<point x="483" y="285"/>
			<point x="570" y="290" type="curve" smooth="yes"/>
			<point x="586" y="291"/>
			<point x="601" y="290"/>
			<point x="615" y="289" type="curve" smooth="yes"/>
			<point x="624" y="288"/>
			<point x="628" y="292"/>
			<point x="628" y="296" type="curve" smooth="yes"/>
			<point x="628" y="300"/>
			<point x="624" y="304"/>
			<point x="615" y="303" type="curve" smooth="yes"/>
			<point x="593" y="301"/>
			<point x="561" y="303"/>
			<point x="538" y="305" type="curve" smooth="yes"/>
			<point x="501" y="308"/>
			<point x="488" y="312"/>
			<point x="488" y="345" type="curve" smooth="yes"/>
			<point x="488" y="346" type="line"/>
			<point x="545" y="355"/>
			<point x="604" y="340"/>
			<point x="665" y="296" type="curve" smooth="yes"/>
			<point x="683" y="283"/>
			<point x="688" y="266"/>
			<point x="688" y="252" type="curve" smooth="yes"/>
			<point x="688" y="238"/>
			<point x="685" y="227"/>
			<point x="684" y="219" type="curve" smooth="yes"/>
			<point x="683" y="213"/>
			<point x="683" y="201"/>
			<point x="688" y="201" type="curve" smooth="yes"/>
			<point x="694" y="201"/>
			<point x="694" y="210"/>
			<point x="693" y="220" type="curve" smooth="yes"/>
			<point x="688" y="269"/>
			<point x="697" y="272"/>
			<point x="713" y="255" type="curve" smooth="yes"/>
			<point x="777" y="179"/>
			<point x="785" y="76"/>
			<point x="679" y="35" type="curve" smooth="yes"/>
			<point x="635" y="18"/>
			<point x="592" y="8"/>
		</contour>
		<contour>
			<point x="281" y="233" type="curve"/>
			<point x="286" y="250"/>
			<point x="295" y="267"/>
			<point x="307" y="283" type="curve" smooth="yes"/>
			<point x="332" y="317"/>
			<point x="369" y="348"/>
			<point x="418" y="371" type="curve"/>
			<point x="418" y="368" type="line" smooth="yes"/>
			<point x="427" y="300"/>
			<point x="504" y="298"/>
			<point x="570" y="298" type="curve" smooth="yes"/>
			<point x="574" y="298"/>
			<point x="574" y="295"/>
			<point x="570" y="295" type="curve" smooth="yes"/>
			<point x="487" y="295"/>
			<point x="370" y="273"/>
		</contour>
		<contour>
			<point x="475" y="319" type="curve" smooth="yes"/>
			<point x="469" y="318"/>
			<point x="461" y="326"/>
			<point x="454" y="337" type="curve"/>
			<point x="464" y="341"/>
			<point x="474" y="343"/>
			<point x="484" y="345" type="curve"/>
			<point x="484" y="331"/>
			<point x="481" y="320"/>
		</contour>
		<contour>
			<point x="441" y="364" type="curve"/>
			<point x="437" y="376"/>
			<point x="434" y="388"/>
			<point x="434" y="398" type="curve" smooth="yes"/>
			<point x="434" y="418"/>
			<point x="445" y="435"/>
			<point x="466" y="432" type="curve" smooth="yes"/>
			<point x="482" y="430"/>
			<point x="485" y="409"/>
			<point x="485" y="369" type="curve" smooth="yes"/>
			<point x="485" y="367" type="line"/>
			<point x="470" y="367"/>
			<point x="455" y="366"/>
		</contour>
		<contour>
			<point x="582" y="351" type="curve"/>
			<point x="558" y="358"/>
			<point x="533" y="364"/>
			<point x="509" y="366" type="curve" smooth="yes"/>
			<point x="502" y="367"/>
			<point x="495" y="367"/>
			<point x="488" y="367" type="curve"/>
			<point x="489" y="424"/>
			<point x="494" y="432"/>
			<point x="516" y="432" type="curve" smooth="yes"/>
			<point x="558" y="432"/>
			<point x="598" y="395"/>
		</contour>
		<contour>
			<point x="930" y="115" type="curve" smooth="yes"/>
			<point x="971" y="115"/>
			<point x="993" y="165"/>
			<point x="993" y="239" type="curve" smooth="yes"/>
			<point x="993" y="320"/>
			<point x="958" y="379"/>
			<point x="909" y="399" type="curve"/>
			<point x="880" y="364" type="line"/>
			<point x="935" y="342"/>
			<point x="987" y="284"/>
			<point x="987" y="228" type="curve" smooth="yes"/>
			<point x="987" y="183"/>
			<point x="969" y="142"/>
			<point x="924" y="142" type="curve" smooth="yes"/>
			<point x="821" y="142"/>
			<point x="789" y="335"/>
			<point x="789" y="500" type="curve" smooth="yes"/>
			<point x="789" y="524"/>
			<point x="790" y="547"/>
			<point x="791" y="570" type="curve"/>
			<point x="902" y="604"/>
			<point x="994" y="628"/>
			<point x="994" y="766" type="curve" smooth="yes"/>
			<point x="994" y="820"/>
			<point x="981" y="891"/>
			<point x="934" y="891" type="curve" smooth="yes"/>
			<point x="864" y="891"/>
			<point x="794" y="737"/>
			<point x="778" y="637" type="curve"/>
			<point x="774" y="637" type="line"/>
			<point x="774" y="666"/>
			<point x="769" y="684"/>
			<point x="746" y="684" type="curve" smooth="yes"/>
			<point x="707" y="684"/>
			<point x="590" y="562"/>
			<point x="589" y="500" type="curve" smooth="yes"/>
			<point x="588" y="448"/>
			<point x="700" y="316"/>
			<point x="746" y="316" type="curve" smooth="yes"/>
			<point x="763" y="316"/>
			<point x="770" y="326"/>
			<point x="773" y="343" type="curve"/>
			<point x="797" y="227"/>
			<point x="883" y="115"/>
		</contour>
		<contour>
			<point x="736" y="343" type="curve" smooth="yes"/>
			<point x="677" y="343"/>
			<point x="618" y="420"/>
			<point x="618" y="500" type="curve" smooth="yes"/>
			<point x="618" y="577"/>
			<point x="675" y="657"/>
			<point x="736" y="657" type="curve" smooth="yes"/>
			<point x="777" y="657"/>
			<point x="765" y="590"/>
			<point x="765" y="500" type="curve" smooth="yes"/>
			<point x="765" y="414"/>
			<point x="777" y="343"/>
		</contour>
		<contour>
			<point x="791" y="575" type="curve"/>
			<point x="800" y="727"/>
			<point x="839" y="860"/>
			<point x="930" y="860" type="curve" smooth="yes"/>
			<point x="972" y="860"/>
			<point x="988" y="822"/>
			<point x="988" y="780" type="curve" smooth="yes"/>
			<point x="988" y="697"/>
			<point x="910" y="613"/>
		</contour>
	</outline>
</glyph>
<glyph name="O_O.ss02_ss03" format="2">
	<advance width="1000"/>
	<note>
		O_O.ss02_ss03
  </note>
	<outline>
		<contour>
			<point x="518" y="574" type="curve" smooth="yes"/>
			<point x="546" y="577"/>
			<point x="595" y="610"/>
			<point x="645" y="662" type="curve" smooth="yes"/>
			<point x="722" y="741"/>
			<point x="853" y="897"/>
			<point x="926" y="980" type="curve"/>
			<point x="817" y="937"/>
			<point x="601" y="970"/>
			<point x="464" y="988" type="curve" smooth="yes"/>
			<point x="288" y="1011"/>
			<point x="204" y="971"/>
			<point x="220" y="910" type="curve" smooth="yes"/>
			<point x="228" y="880"/>
			<point x="255" y="870"/>
			<point x="255" y="839" type="curve" smooth="yes"/>
			<point x="255" y="821"/>
			<point x="244" y="809"/>
			<point x="222" y="795" type="curve"/>
			<point x="433" y="558"/>
			<point x="492" y="571"/>
		</contour>
		<contour>
			<point x="554" y="677" type="curve" smooth="yes"/>
			<point x="469" y="677"/>
			<point x="342" y="818"/>
			<point x="342" y="884" type="curve" smooth="yes"/>
			<point x="342" y="961"/>
			<point x="491" y="945"/>
			<point x="629" y="928" type="curve" smooth="yes"/>
			<point x="695" y="920"/>
			<point x="741" y="909"/>
			<point x="741" y="866" type="curve" smooth="yes"/>
			<point x="741" y="802"/>
			<point x="626" y="677"/>
		</contour>
		<contour>
			<point x="552" y="733" type="curve" smooth="yes"/>
			<point x="599" y="733"/>
			<point x="637" y="771"/>
			<point x="637" y="819" type="curve" smooth="yes"/>
			<point x="637" y="867"/>
			<point x="598" y="904"/>
			<point x="552" y="904" type="curve" smooth="yes"/>
			<point x="504" y="904"/>
			<point x="467" y="865"/>
			<point x="467" y="819" type="curve" smooth="yes"/>
			<point x="467" y="771"/>
			<point x="505" y="733"/>
		</contour>
		<contour>
			<point x="838" y="463" type="curve" smooth="yes"/>
			<point x="919" y="463"/>
			<point x="985" y="529"/>
			<point x="985" y="610" type="curve" smooth="yes"/>
			<point x="985" y="690"/>
			<point x="919" y="756"/>
			<point x="838" y="756" type="curve" smooth="yes"/>
			<point x="757" y="756"/>
			<point x="691" y="690"/>
			<point x="691" y="610" type="curve" smooth="yes"/>
			<point x="691" y="529"/>
			<point x="757" y="463"/>
		</contour>
		<contour>
			<point x="838" y="485" type="curve" smooth="yes"/>
			<point x="769" y="485"/>
			<point x="713" y="541"/>
			<point x="713" y="610" type="curve" smooth="yes"/>
			<point x="713" y="679"/>
			<point x="769" y="735"/>
			<point x="838" y="735" type="curve" smooth="yes"/>
			<point x="908" y="735"/>
			<point x="964" y="679"/>
			<point x="964" y="610" type="curve" smooth="yes"/>
			<point x="964" y="541"/>
			<point x="908" y="485"/>
		</contour>
	</outline>
</glyph>
<glyph name="P.ss02" format="2">
	<advance width="1000"/>
	<note>
		P.ss02
  </note>
	<outline>
		<contour>
			<point x="459" y="586" type="curve"/>
			<point x="484" y="558" type="line"/>
			<point x="484" y="575"/>
			<point x="487" y="587"/>
			<point x="493" y="592" type="curve" smooth="yes"/>
			<point x="499" y="598"/>
			<point x="508" y="601"/>
			<point x="520" y="602" type="curve" smooth="yes"/>
			<point x="532" y="603"/>
			<point x="540" y="606"/>
			<point x="545" y="610" type="curve"/>
			<point x="545" y="876" type="line"/>
			<point x="482" y="909" type="line"/>
			<point x="495" y="927"/>
			<point x="508" y="941"/>
			<point x="520" y="952" type="curve" smooth="yes"/>
			<point x="532" y="963"/>
			<point x="543" y="967"/>
			<point x="554" y="966" type="curve" smooth="yes"/>
			<point x="567" y="965"/>
			<point x="580" y="956"/>
			<point x="592" y="941" type="curve" smooth="yes"/>
			<point x="604" y="926"/>
			<point x="614" y="908"/>
			<point x="621" y="886" type="curve" smooth="yes"/>
			<point x="628" y="864"/>
			<point x="632" y="841"/>
			<point x="632" y="818" type="curve" smooth="yes"/>
			<point x="632" y="793"/>
			<point x="630" y="776"/>
			<point x="627" y="767" type="curve" smooth="yes"/>
			<point x="623" y="757"/>
			<point x="618" y="752"/>
			<point x="611" y="752" type="curve" smooth="yes"/>
			<point x="607" y="752"/>
			<point x="600" y="753"/>
			<point x="589" y="759" type="curve" smooth="yes"/>
			<point x="569" y="770"/>
			<point x="563" y="770"/>
			<point x="547" y="767" type="curve"/>
			<point x="559" y="768"/>
			<point x="571" y="765"/>
			<point x="583" y="756" type="curve" smooth="yes"/>
			<point x="595" y="747"/>
			<point x="609" y="733"/>
			<point x="625" y="716" type="curve" smooth="yes"/>
			<point x="639" y="701"/>
			<point x="648" y="693"/>
			<point x="652" y="693" type="curve" smooth="yes"/>
			<point x="655" y="693"/>
			<point x="657" y="697"/>
			<point x="657" y="705" type="curve" smooth="yes"/>
			<point x="657" y="722"/>
			<point x="658" y="734"/>
			<point x="661" y="741" type="curve" smooth="yes"/>
			<point x="664" y="748"/>
			<point x="668" y="751"/>
			<point x="673" y="751" type="curve" smooth="yes"/>
			<point x="674" y="751"/>
			<point x="677" y="751"/>
			<point x="681" y="750" type="curve" smooth="yes"/>
			<point x="685" y="749"/>
			<point x="686" y="748"/>
			<point x="689" y="748" type="curve" smooth="yes"/>
			<point x="696" y="748"/>
			<point x="702" y="754"/>
			<point x="706" y="764" type="curve" smooth="yes"/>
			<point x="710" y="774"/>
			<point x="712" y="793"/>
			<point x="712" y="822" type="curve" smooth="yes"/>
			<point x="712" y="865"/>
			<point x="703" y="900"/>
			<point x="686" y="926" type="curve" smooth="yes"/>
			<point x="669" y="952"/>
			<point x="648" y="970"/>
			<point x="624" y="981" type="curve" smooth="yes"/>
			<point x="583" y="999"/>
			<point x="546" y="1001"/>
			<point x="498" y="986" type="curve" smooth="yes"/>
			<point x="463" y="975"/>
			<point x="427" y="957"/>
			<point x="409" y="946" type="curve"/>
			<point x="350" y="977" type="line"/>
			<point x="368" y="946" type="line"/>
			<point x="259" y="953" type="line"/>
			<point x="309" y="948"/>
			<point x="347" y="942"/>
			<point x="372" y="935" type="curve" smooth="yes"/>
			<point x="398" y="928"/>
			<point x="414" y="920"/>
			<point x="422" y="912" type="curve" smooth="yes"/>
			<point x="430" y="904"/>
			<point x="436" y="894"/>
			<point x="441" y="881" type="curve" smooth="yes"/>
			<point x="444" y="872"/>
			<point x="448" y="864"/>
			<point x="453" y="858" type="curve" smooth="yes"/>
			<point x="458" y="852"/>
			<point x="465" y="846"/>
			<point x="476" y="840" type="curve"/>
			<point x="476" y="654" type="line" smooth="yes"/>
			<point x="476" y="637"/>
			<point x="475" y="626"/>
			<point x="474" y="619" type="curve" smooth="yes"/>
			<point x="472" y="612"/>
			<point x="469" y="607"/>
			<point x="466" y="602" type="curve" smooth="yes"/>
			<point x="463" y="597"/>
			<point x="460" y="591"/>
		</contour>
	</outline>
</glyph>
<glyph name="Z_Z_Z.ss01_ss04_ss03" format="2">
	<advance width="1000"/>
	<note>
		Z_Z_Z.ss01_ss04_ss03
  </note>
	<outline>
		<contour>
			<point x="950" y="0" type="curve"/>
			<point x="952" y="2" type="line"/>
			<point x="869" y="89"/>
			<point x="790" y="133"/>
			<point x="748" y="133" type="curve" smooth="yes"/>
			<point x="566" y="133"/>
			<point x="162" y="-80"/>
			<point x="232" y="70" type="curve" smooth="yes"/>
			<point x="242" y="91"/>
			<point x="253" y="108"/>
			<point x="264" y="122" type="curve"/>
			<point x="287" y="145"/>
			<point x="290" y="128"/>
			<point x="283" y="87" type="curve" smooth="yes"/>
			<point x="278" y="61"/>
			<point x="275" y="32"/>
			<point x="286" y="32" type="curve" smooth="yes"/>
			<point x="300" y="32"/>
			<point x="297" y="61"/>
			<point x="294" y="84" type="curve" smooth="yes"/>
			<point x="288" y="132"/>
			<point x="291" y="151"/>
			<point x="329" y="167" type="curve" smooth="yes"/>
			<point x="417" y="199"/>
			<point x="524" y="149"/>
			<point x="589" y="215" type="curve" smooth="yes"/>
			<point x="626" y="252"/>
			<point x="671" y="344"/>
			<point x="647" y="351" type="curve" smooth="yes"/>
			<point x="575" y="371"/>
			<point x="568" y="393"/>
			<point x="519" y="473" type="curve" smooth="yes"/>
			<point x="492" y="516"/>
			<point x="486" y="483"/>
			<point x="463" y="420" type="curve" smooth="yes"/>
			<point x="444" y="366"/>
			<point x="405" y="289"/>
			<point x="280" y="270" type="curve"/>
			<point x="280" y="268" type="line"/>
			<point x="397" y="278"/>
			<point x="469" y="324"/>
			<point x="487" y="384" type="curve" smooth="yes"/>
			<point x="504" y="438"/>
			<point x="470" y="508"/>
			<point x="509" y="458" type="curve" smooth="yes"/>
			<point x="527" y="434"/>
			<point x="531" y="414"/>
			<point x="535" y="397" type="curve" smooth="yes"/>
			<point x="541" y="367"/>
			<point x="541" y="331"/>
			<point x="539" y="320" type="curve" smooth="yes"/>
			<point x="535" y="300"/>
			<point x="532" y="275"/>
			<point x="541" y="275" type="curve" smooth="yes"/>
			<point x="552" y="275"/>
			<point x="550" y="299"/>
			<point x="548" y="318" type="curve" smooth="yes"/>
			<point x="543" y="362"/>
			<point x="540" y="371"/>
			<point x="556" y="364" type="curve"/>
			<point x="569" y="356"/>
			<point x="590" y="350"/>
			<point x="626" y="346" type="curve" smooth="yes"/>
			<point x="671" y="341"/>
			<point x="631" y="289"/>
			<point x="569" y="248" type="curve" smooth="yes"/>
			<point x="410" y="143"/>
			<point x="245" y="248"/>
			<point x="181" y="121" type="curve" smooth="yes"/>
			<point x="97" y="-46"/>
			<point x="401" y="-14"/>
			<point x="582" y="57" type="curve" smooth="yes"/>
			<point x="623" y="73"/>
			<point x="661" y="86"/>
			<point x="698" y="92" type="curve"/>
			<point x="688" y="85" type="line"/>
			<point x="725" y="100"/>
			<point x="733" y="93"/>
			<point x="730" y="66" type="curve" smooth="yes"/>
			<point x="726" y="37"/>
			<point x="723" y="25"/>
			<point x="730" y="25" type="curve" smooth="yes"/>
			<point x="737" y="25"/>
			<point x="731" y="52"/>
			<point x="732" y="66" type="curve" smooth="yes"/>
			<point x="733" y="77"/>
			<point x="733" y="87"/>
			<point x="739" y="94" type="curve"/>
			<point x="800" y="93"/>
			<point x="866" y="68"/>
		</contour>
		<contour>
			<point x="18" y="39" type="curve"/>
			<point x="19" y="34" type="line"/>
			<point x="156" y="132"/>
			<point x="258" y="527"/>
			<point x="404" y="527" type="curve" smooth="yes"/>
			<point x="430" y="527"/>
			<point x="454" y="518"/>
			<point x="482" y="494" type="curve"/>
			<point x="488" y="499" type="line"/>
			<point x="409" y="568" type="line"/>
			<point x="297" y="568"/>
			<point x="188" y="315"/>
			<point x="138" y="228" type="curve"/>
			<point x="99" y="331"/>
			<point x="144" y="558"/>
			<point x="268" y="717" type="curve"/>
			<point x="263" y="720" type="line"/>
			<point x="188" y="643"/>
			<point x="107" y="916"/>
			<point x="63" y="916" type="curve" smooth="yes"/>
			<point x="0" y="916"/>
			<point x="86" y="736"/>
			<point x="5" y="688" type="curve"/>
			<point x="75" y="688" type="line"/>
			<point x="107" y="736"/>
			<point x="10" y="858"/>
			<point x="71" y="858" type="curve" smooth="yes"/>
			<point x="135" y="858"/>
			<point x="86" y="631"/>
			<point x="225" y="690" type="curve"/>
			<point x="13" y="362"/>
			<point x="89" y="132"/>
		</contour>
		<contour>
			<point x="909" y="147" type="curve" smooth="yes"/>
			<point x="970" y="147"/>
			<point x="992" y="198"/>
			<point x="992" y="254" type="curve" smooth="yes"/>
			<point x="992" y="326"/>
			<point x="948" y="387"/>
			<point x="908" y="395" type="curve"/>
			<point x="879" y="360" type="line"/>
			<point x="975" y="322"/>
			<point x="1009" y="178"/>
			<point x="932" y="155" type="curve" smooth="yes"/>
			<point x="865" y="135"/>
			<point x="834" y="202"/>
			<point x="806" y="295" type="curve" smooth="yes"/>
			<point x="784" y="369"/>
			<point x="746" y="460"/>
			<point x="648" y="536" type="curve"/>
			<point x="774" y="587"/>
			<point x="937" y="610"/>
			<point x="966" y="827" type="curve"/>
			<point x="1002" y="851"/>
			<point x="983" y="915"/>
			<point x="953" y="906" type="curve" smooth="yes"/>
			<point x="928" y="899"/>
			<point x="932" y="872"/>
			<point x="937" y="837" type="curve"/>
			<point x="890" y="842"/>
			<point x="839" y="823"/>
			<point x="805" y="799" type="curve" smooth="yes"/>
			<point x="737" y="750"/>
			<point x="765" y="646"/>
			<point x="845" y="664" type="curve"/>
			<point x="853" y="702" type="line"/>
			<point x="715" y="713"/>
			<point x="800" y="843"/>
			<point x="937" y="828" type="curve"/>
			<point x="929" y="520"/>
			<point x="598" y="591"/>
			<point x="508" y="500" type="curve"/>
			<point x="542" y="467" type="line"/>
			<point x="568" y="498"/>
			<point x="604" y="518"/>
			<point x="644" y="534" type="curve"/>
			<point x="798" y="408"/>
			<point x="738" y="147"/>
		</contour>
	</outline>
</glyph>
<glyph name="ampersand_ampersand.ss01_ss02" format="2">
	<advance width="1000"/>
	<note>
		ampersand_ampersand.ss01_ss02
  </note>
	<outline>
		<contour>
			<point x="67" y="112" type="curve" smooth="yes"/>
			<point x="96" y="112"/>
			<point x="140" y="161"/>
			<point x="178" y="278" type="curve"/>
			<point x="190" y="266"/>
			<point x="202" y="260"/>
			<point x="215" y="260" type="curve" smooth="yes"/>
			<point x="287" y="260"/>
			<point x="368" y="362"/>
			<point x="417" y="567" type="curve"/>
			<point x="319" y="674" type="line"/>
			<point x="317" y="672" type="line"/>
			<point x="381" y="527"/>
			<point x="327" y="292"/>
			<point x="214" y="292" type="curve" smooth="yes"/>
			<point x="204" y="292"/>
			<point x="194" y="296"/>
			<point x="186" y="302" type="curve"/>
			<point x="215" y="398"/>
			<point x="240" y="534"/>
			<point x="252" y="719" type="curve"/>
			<point x="244" y="719" type="line"/>
			<point x="220" y="545"/>
			<point x="196" y="410"/>
			<point x="170" y="320" type="curve"/>
			<point x="141" y="363"/>
			<point x="129" y="453"/>
			<point x="129" y="549" type="curve"/>
			<point x="130" y="550" type="line"/>
			<point x="145" y="572" type="line" smooth="yes"/>
			<point x="185" y="630"/>
			<point x="194" y="668"/>
			<point x="194" y="713" type="curve" smooth="yes"/>
			<point x="194" y="828"/>
			<point x="116" y="896"/>
			<point x="67" y="896" type="curve" smooth="yes"/>
			<point x="19" y="896"/>
			<point x="1" y="850"/>
			<point x="1" y="819" type="curve" smooth="yes"/>
			<point x="1" y="718"/>
			<point x="98" y="692"/>
			<point x="113" y="609" type="curve"/>
			<point x="100" y="589" type="line"/>
			<point x="89" y="572" type="line" smooth="yes"/>
			<point x="29" y="480"/>
			<point x="9" y="368"/>
			<point x="9" y="289" type="curve" smooth="yes"/>
			<point x="9" y="217"/>
			<point x="23" y="112"/>
		</contour>
		<contour>
			<point x="89" y="184" type="curve" smooth="yes"/>
			<point x="47" y="184"/>
			<point x="24" y="244"/>
			<point x="24" y="296" type="curve" smooth="yes"/>
			<point x="24" y="367"/>
			<point x="37" y="412"/>
			<point x="118" y="533" type="curve"/>
			<point x="118" y="421"/>
			<point x="136" y="341"/>
			<point x="163" y="297" type="curve"/>
			<point x="140" y="223"/>
			<point x="116" y="184"/>
		</contour>
		<contour>
			<point x="125" y="627" type="curve"/>
			<point x="105" y="696"/>
			<point x="36" y="729"/>
			<point x="36" y="812" type="curve" smooth="yes"/>
			<point x="36" y="848"/>
			<point x="55" y="862"/>
			<point x="81" y="862" type="curve" smooth="yes"/>
			<point x="119" y="862"/>
			<point x="174" y="812"/>
			<point x="174" y="746" type="curve" smooth="yes"/>
			<point x="174" y="700"/>
			<point x="154" y="669"/>
		</contour>
		<contour>
			<point x="511" y="603" type="curve" smooth="yes"/>
			<point x="597" y="603"/>
			<point x="647" y="654"/>
			<point x="671" y="720" type="curve"/>
			<point x="760" y="757"/>
			<point x="852" y="833"/>
			<point x="928" y="976" type="curve"/>
			<point x="780" y="976" type="line"/>
			<point x="789" y="858"/>
			<point x="743" y="792"/>
			<point x="681" y="757" type="curve"/>
			<point x="692" y="817"/>
			<point x="687" y="883"/>
			<point x="669" y="933" type="curve"/>
			<point x="546" y="981" type="line"/>
			<point x="564" y="922"/>
			<point x="602" y="805"/>
			<point x="591" y="727" type="curve"/>
			<point x="534" y="718"/>
			<point x="478" y="723"/>
			<point x="443" y="731" type="curve"/>
			<point x="485" y="733"/>
			<point x="522" y="751"/>
			<point x="538" y="805" type="curve" smooth="yes"/>
			<point x="560" y="879"/>
			<point x="486" y="984"/>
			<point x="299" y="999" type="curve"/>
			<point x="181" y="916" type="line"/>
			<point x="219" y="754"/>
			<point x="363" y="603"/>
		</contour>
		<contour>
			<point x="511" y="653" type="curve" smooth="yes"/>
			<point x="457" y="654"/>
			<point x="414" y="680"/>
			<point x="381" y="717" type="curve"/>
			<point x="432" y="698"/>
			<point x="504" y="684"/>
			<point x="583" y="696" type="curve"/>
			<point x="571" y="669"/>
			<point x="549" y="652"/>
		</contour>
		<contour>
			<point x="466" y="805" type="curve" smooth="yes"/>
			<point x="466" y="716"/>
			<point x="353" y="750"/>
			<point x="319" y="827" type="curve"/>
			<point x="309" y="856"/>
			<point x="302" y="884"/>
			<point x="299" y="909" type="curve"/>
			<point x="382" y="898"/>
			<point x="466" y="871"/>
		</contour>
	</outline>
</glyph>
<glyph name="ampersand_ampersand.ss02_ss04" format="2">
	<advance width="1000"/>
	<note>
		ampersand_ampersand.ss02_ss04
  </note>
	<outline>
		<contour>
			<point x="885" y="14" type="curve" smooth="yes"/>
			<point x="938" y="-11"/>
			<point x="963" y="46"/>
			<point x="916" y="63" type="curve" smooth="yes"/>
			<point x="805" y="103"/>
			<point x="705" y="147"/>
			<point x="625" y="200" type="curve"/>
			<point x="649" y="221"/>
			<point x="671" y="242"/>
			<point x="691" y="265" type="curve" smooth="yes"/>
			<point x="723" y="302"/>
			<point x="689" y="321"/>
			<point x="674" y="301" type="curve" smooth="yes"/>
			<point x="652" y="270"/>
			<point x="626" y="241"/>
			<point x="599" y="215" type="curve"/>
			<point x="553" y="241"/>
			<point x="515" y="268"/>
			<point x="487" y="296" type="curve"/>
			<point x="614" y="321"/>
			<point x="629" y="360"/>
			<point x="560" y="436" type="curve" smooth="yes"/>
			<point x="543" y="454"/>
			<point x="516" y="466"/>
			<point x="500" y="466" type="curve" smooth="yes"/>
			<point x="416" y="466"/>
			<point x="422" y="361"/>
			<point x="475" y="301" type="curve"/>
			<point x="313" y="275"/>
			<point x="91" y="127"/>
			<point x="91" y="53" type="curve" smooth="yes"/>
			<point x="91" y="-46"/>
			<point x="356" y="13"/>
			<point x="556" y="149" type="curve"/>
			<point x="578" y="159"/>
			<point x="580" y="143"/>
			<point x="575" y="101" type="curve" smooth="yes"/>
			<point x="573" y="87"/>
			<point x="571" y="70"/>
			<point x="577" y="70" type="curve" smooth="yes"/>
			<point x="585" y="70"/>
			<point x="583" y="86"/>
			<point x="582" y="99" type="curve" smooth="yes"/>
			<point x="578" y="146"/>
			<point x="581" y="165"/>
			<point x="598" y="179" type="curve"/>
			<point x="598" y="180"/>
			<point x="599" y="180"/>
			<point x="600" y="181" type="curve"/>
			<point x="664" y="130"/>
			<point x="756" y="74"/>
		</contour>
		<contour>
			<point x="171" y="80" type="curve" smooth="yes"/>
			<point x="171" y="106"/>
			<point x="197" y="143"/>
			<point x="238" y="179" type="curve"/>
			<point x="258" y="191"/>
			<point x="259" y="178"/>
			<point x="252" y="139" type="curve" smooth="yes"/>
			<point x="247" y="112"/>
			<point x="244" y="84"/>
			<point x="255" y="84" type="curve" smooth="yes"/>
			<point x="269" y="84"/>
			<point x="266" y="113"/>
			<point x="263" y="136" type="curve" smooth="yes"/>
			<point x="258" y="175"/>
			<point x="259" y="194"/>
			<point x="282" y="213" type="curve"/>
			<point x="339" y="252"/>
			<point x="411" y="284"/>
			<point x="482" y="294" type="curve"/>
			<point x="486" y="289"/>
			<point x="515" y="251"/>
			<point x="580" y="197" type="curve"/>
			<point x="408" y="44"/>
			<point x="171" y="-25"/>
		</contour>
		<contour>
			<point x="480" y="303" type="curve"/>
			<point x="463" y="322"/>
			<point x="456" y="395"/>
			<point x="477" y="433" type="curve"/>
			<point x="486" y="445"/>
			<point x="487" y="425"/>
			<point x="482" y="383" type="curve" smooth="yes"/>
			<point x="481" y="375"/>
			<point x="480" y="368"/>
			<point x="484" y="368" type="curve" smooth="yes"/>
			<point x="488" y="368"/>
			<point x="487" y="379"/>
			<point x="487" y="391" type="curve" smooth="yes"/>
			<point x="486" y="431"/>
			<point x="486" y="459"/>
			<point x="521" y="455" type="curve"/>
			<point x="561" y="447"/>
			<point x="567" y="389"/>
			<point x="549" y="350" type="curve" smooth="yes"/>
			<point x="537" y="322"/>
			<point x="512" y="310"/>
		</contour>
		<contour>
			<point x="511" y="603" type="curve" smooth="yes"/>
			<point x="597" y="603"/>
			<point x="647" y="654"/>
			<point x="671" y="720" type="curve"/>
			<point x="760" y="757"/>
			<point x="852" y="833"/>
			<point x="928" y="976" type="curve"/>
			<point x="780" y="976" type="line"/>
			<point x="789" y="858"/>
			<point x="743" y="792"/>
			<point x="681" y="757" type="curve"/>
			<point x="692" y="817"/>
			<point x="687" y="883"/>
			<point x="669" y="933" type="curve"/>
			<point x="546" y="981" type="line"/>
			<point x="564" y="922"/>
			<point x="602" y="805"/>
			<point x="591" y="727" type="curve"/>
			<point x="534" y="718"/>
			<point x="478" y="723"/>
			<point x="443" y="731" type="curve"/>
			<point x="485" y="733"/>
			<point x="522" y="751"/>
			<point x="538" y="805" type="curve" smooth="yes"/>
			<point x="560" y="879"/>
			<point x="486" y="984"/>
			<point x="299" y="999" type="curve"/>
			<point x="181" y="916" type="line"/>
			<point x="219" y="754"/>
			<point x="363" y="603"/>
		</contour>
		<contour>
			<point x="511" y="653" type="curve" smooth="yes"/>
			<point x="457" y="654"/>
			<point x="414" y="680"/>
			<point x="381" y="717" type="curve"/>
			<point x="432" y="698"/>
			<point x="504" y="684"/>
			<point x="583" y="696" type="curve"/>
			<point x="571" y="669"/>
			<point x="549" y="652"/>
		</contour>
		<contour>
			<point x="466" y="805" type="curve" smooth="yes"/>
			<point x="466" y="716"/>
			<point x="353" y="750"/>
			<point x="319" y="827" type="curve"/>
			<point x="309" y="856"/>
			<point x="302" y="884"/>
			<point x="299" y="909" type="curve"/>
			<point x="382" y="898"/>
			<point x="466" y="871"/>
		</contour>
	</outline>
</glyph>
<glyph name="eight.ss02" format="2">
	<advance width="1000"/>
	<note>
		eight.ss02
  </note>
	<outline>
		<contour>
			<point x="547" y="595" type="curve" smooth="yes"/>
			<point x="610" y="595"/>
			<point x="643" y="640"/>
			<point x="643" y="684" type="curve" smooth="yes"/>
			<point x="643" y="739"/>
			<point x="586" y="755"/>
			<point x="611" y="774" type="curve" smooth="yes"/>
			<point x="683" y="829"/>
			<point x="773" y="883"/>
			<point x="773" y="923" type="curve" smooth="yes"/>
			<point x="773" y="1047"/>
			<point x="433" y="973"/>
			<point x="326" y="982" type="curve" smooth="yes"/>
			<point x="305" y="984"/>
			<point x="358" y="875"/>
			<point x="326" y="875" type="curve" smooth="yes"/>
			<point x="303" y="875"/>
			<point x="283" y="871"/>
			<point x="280" y="830" type="curve" smooth="yes"/>
			<point x="276" y="775"/>
			<point x="287" y="682"/>
			<point x="342" y="682" type="curve" smooth="yes"/>
			<point x="410" y="682"/>
			<point x="697" y="920"/>
			<point x="631" y="917" type="curve" smooth="yes"/>
			<point x="612" y="916"/>
			<point x="429" y="836"/>
			<point x="388" y="848" type="curve" smooth="yes"/>
			<point x="358" y="857"/>
			<point x="361" y="934"/>
			<point x="406" y="943" type="curve" smooth="yes"/>
			<point x="467" y="955"/>
			<point x="667" y="978"/>
			<point x="667" y="934" type="curve" smooth="yes"/>
			<point x="667" y="847"/>
			<point x="465" y="787"/>
			<point x="463" y="679" type="curve" smooth="yes"/>
			<point x="462" y="623"/>
			<point x="504" y="595"/>
		</contour>
		<contour>
			<point x="553" y="636" type="curve" smooth="yes"/>
			<point x="532" y="636"/>
			<point x="518" y="656"/>
			<point x="518" y="678" type="curve" smooth="yes"/>
			<point x="518" y="705"/>
			<point x="545" y="740"/>
			<point x="566" y="740" type="curve" smooth="yes"/>
			<point x="583" y="740"/>
			<point x="592" y="713"/>
			<point x="592" y="688" type="curve" smooth="yes"/>
			<point x="592" y="658"/>
			<point x="582" y="636"/>
		</contour>
	</outline>
</glyph>
<glyph name="exclam_exclam.ss01_ss02" format="2">
	<advance width="1000"/>
	<note>
		exclam_exclam.ss01_ss02
  </note>
	<outline>
		<contour>
			<point x="86" y="858" type="curve"/>
			<point x="67" y="414" type="line"/>
			<point x="106" y="494"/>
			<point x="191" y="522"/>
			<point x="281" y="469" type="curve"/>
			<point x="289" y="480" type="line"/>
			<point x="119" y="631"/>
			<point x="123" y="728"/>
			<point x="119" y="867" type="curve"/>
			<point x="91" y="871" type="line"/>
			<point x="63" y="853"/>
			<point x="35" y="820"/>
			<point x="22" y="786" type="curve"/>
			<point x="36" y="768" type="line"/>
			<point x="49" y="802"/>
			<point x="65" y="828"/>
		</contour>
		<contour>
			<point x="196" y="251" type="curve" smooth="yes"/>
			<point x="254" y="251"/>
			<point x="301" y="297"/>
			<point x="301" y="353" type="curve" smooth="yes"/>
			<point x="301" y="409"/>
			<point x="254" y="455"/>
			<point x="196" y="455" type="curve" smooth="yes"/>
			<point x="138" y="455"/>
			<point x="91" y="409"/>
			<point x="91" y="353" type="curve" smooth="yes"/>
			<point x="91" y="297"/>
			<point x="138" y="251"/>
		</contour>
		<contour>
			<point x="520" y="643" type="curve" smooth="yes"/>
			<point x="531" y="648"/>
			<point x="531" y="664"/>
			<point x="531" y="678" type="curve" smooth="yes"/>
			<point x="531" y="758"/>
			<point x="539" y="840"/>
			<point x="539" y="919" type="curve" smooth="yes"/>
			<point x="539" y="937"/>
			<point x="540" y="954"/>
			<point x="533" y="972" type="curve" smooth="yes"/>
			<point x="515" y="1019"/>
			<point x="464" y="1000"/>
			<point x="426" y="990" type="curve" smooth="yes"/>
			<point x="375" y="977"/>
			<point x="341" y="962"/>
			<point x="291" y="935" type="curve" smooth="yes"/>
			<point x="276" y="927"/>
			<point x="259" y="908"/>
			<point x="268" y="892" type="curve" smooth="yes"/>
			<point x="274" y="881"/>
			<point x="291" y="878"/>
			<point x="303" y="875" type="curve" smooth="yes"/>
			<point x="347" y="864"/>
			<point x="384" y="832"/>
			<point x="409" y="795" type="curve" smooth="yes"/>
			<point x="435" y="756"/>
			<point x="451" y="714"/>
			<point x="473" y="672" type="curve" smooth="yes"/>
			<point x="478" y="663"/>
			<point x="481" y="654"/>
			<point x="490" y="647" type="curve" smooth="yes"/>
			<point x="498" y="641"/>
			<point x="511" y="639"/>
		</contour>
		<contour>
			<point x="506" y="517" type="curve" smooth="yes"/>
			<point x="525" y="517"/>
			<point x="533" y="533"/>
			<point x="537" y="549" type="curve" smooth="yes"/>
			<point x="541" y="565"/>
			<point x="555" y="597"/>
			<point x="543" y="599" type="curve" smooth="yes"/>
			<point x="532" y="601"/>
			<point x="516" y="615"/>
			<point x="510" y="627" type="curve"/>
			<point x="504" y="625" type="line"/>
			<point x="505" y="618"/>
			<point x="504" y="616"/>
			<point x="497" y="609" type="curve" smooth="yes"/>
			<point x="495" y="607"/>
			<point x="494" y="571"/>
			<point x="492" y="577" type="curve" smooth="yes"/>
			<point x="490" y="583"/>
			<point x="475" y="596"/>
			<point x="473" y="595" type="curve" smooth="yes"/>
			<point x="461" y="589"/>
			<point x="464" y="563"/>
			<point x="464" y="545" type="curve" smooth="yes"/>
			<point x="464" y="526"/>
			<point x="487" y="517"/>
		</contour>
		<contour>
			<point x="500" y="702" type="curve" smooth="yes"/>
			<point x="495" y="703"/>
			<point x="494" y="731"/>
			<point x="493" y="743" type="curve" smooth="yes"/>
			<point x="492" y="755"/>
			<point x="486" y="781"/>
			<point x="486" y="787" type="curve" smooth="yes"/>
			<point x="486" y="791"/>
			<point x="495" y="795"/>
			<point x="508" y="794" type="curve"/>
			<point x="514" y="790"/>
			<point x="510" y="787"/>
			<point x="510" y="780" type="curve" smooth="yes"/>
			<point x="510" y="772"/>
			<point x="508" y="748"/>
			<point x="509" y="735" type="curve" smooth="yes"/>
			<point x="510" y="724"/>
			<point x="505" y="701"/>
		</contour>
		<contour>
			<point x="450" y="828" type="curve" smooth="yes"/>
			<point x="445" y="826"/>
			<point x="435" y="818"/>
			<point x="433" y="832" type="curve" smooth="yes"/>
			<point x="431" y="846"/>
			<point x="414" y="860"/>
			<point x="405" y="870" type="curve" smooth="yes"/>
			<point x="401" y="874"/>
			<point x="372" y="888"/>
			<point x="363" y="890" type="curve" smooth="yes"/>
			<point x="355" y="892"/>
			<point x="350" y="901"/>
			<point x="354" y="903" type="curve" smooth="yes"/>
			<point x="356" y="904"/>
			<point x="336" y="914"/>
			<point x="369" y="910" type="curve" smooth="yes"/>
			<point x="402" y="906"/>
			<point x="435" y="883"/>
			<point x="443" y="872" type="curve" smooth="yes"/>
			<point x="451" y="861"/>
			<point x="456" y="830"/>
		</contour>
		<contour>
			<point x="496" y="834" type="curve"/>
			<point x="487" y="834"/>
			<point x="481" y="833"/>
			<point x="479" y="846" type="curve" smooth="yes"/>
			<point x="477" y="860"/>
			<point x="485" y="864"/>
			<point x="495" y="868" type="curve" smooth="yes"/>
			<point x="504" y="872"/>
			<point x="510" y="869"/>
			<point x="511" y="860" type="curve" smooth="yes"/>
			<point x="512" y="850"/>
			<point x="506" y="840"/>
		</contour>
		<contour>
			<point x="498" y="907" type="curve" smooth="yes"/>
			<point x="488" y="904"/>
			<point x="483" y="906"/>
			<point x="481" y="914" type="curve" smooth="yes"/>
			<point x="479" y="921"/>
			<point x="470" y="925"/>
			<point x="456" y="931" type="curve" smooth="yes"/>
			<point x="441" y="937"/>
			<point x="448" y="957"/>
			<point x="450" y="966" type="curve" smooth="yes"/>
			<point x="453" y="979"/>
			<point x="465" y="977"/>
			<point x="475" y="980" type="curve"/>
			<point x="496" y="971" type="line" smooth="yes"/>
			<point x="511" y="965"/>
			<point x="510" y="953"/>
			<point x="514" y="937" type="curve" smooth="yes"/>
			<point x="518" y="922"/>
			<point x="508" y="910"/>
		</contour>
	</outline>
</glyph>
<glyph name="four_four.ss02_ss04" format="2">
	<advance width="1000"/>
	<note>
		four_four.ss02_ss04
  </note>
	<outline>
		<contour>
			<point x="440" y="12" type="curve" smooth="yes"/>
			<point x="479" y="-1"/>
			<point x="581" y="-10"/>
			<point x="672" y="36" type="curve" smooth="yes"/>
			<point x="684" y="42"/>
			<point x="677" y="55"/>
			<point x="665" y="50" type="curve" smooth="yes"/>
			<point x="538" y="-12"/>
			<point x="425" y="-11"/>
			<point x="422" y="106" type="curve" smooth="yes"/>
			<point x="421" y="130"/>
			<point x="428" y="151"/>
			<point x="438" y="169" type="curve"/>
			<point x="459" y="167"/>
			<point x="483" y="163"/>
			<point x="511" y="157" type="curve" smooth="yes"/>
			<point x="605" y="136"/>
			<point x="672" y="129"/>
			<point x="720" y="129" type="curve" smooth="yes"/>
			<point x="772" y="129"/>
			<point x="792" y="143"/>
			<point x="759" y="209" type="curve" smooth="yes"/>
			<point x="753" y="221"/>
			<point x="738" y="207"/>
			<point x="748" y="197" type="curve" smooth="yes"/>
			<point x="781" y="164"/>
			<point x="777" y="140"/>
			<point x="714" y="140" type="curve" smooth="yes"/>
			<point x="639" y="140"/>
			<point x="550" y="201"/>
			<point x="463" y="199" type="curve" smooth="yes"/>
			<point x="461" y="199" type="line"/>
			<point x="486" y="226"/>
			<point x="519" y="247"/>
			<point x="546" y="267" type="curve"/>
			<point x="566" y="278"/>
			<point x="567" y="274"/>
			<point x="562" y="220" type="curve" smooth="yes"/>
			<point x="561" y="210"/>
			<point x="561" y="201"/>
			<point x="567" y="201" type="curve" smooth="yes"/>
			<point x="572" y="201"/>
			<point x="572" y="213"/>
			<point x="571" y="219" type="curve" smooth="yes"/>
			<point x="561" y="278"/>
			<point x="567" y="271"/>
			<point x="589" y="304" type="curve"/>
			<point x="593" y="308"/>
			<point x="596" y="313"/>
			<point x="598" y="318" type="curve" smooth="yes"/>
			<point x="624" y="379"/>
			<point x="517" y="428"/>
			<point x="500" y="490" type="curve"/>
			<point x="482" y="397"/>
			<point x="359" y="250"/>
			<point x="211" y="197" type="curve"/>
			<point x="213" y="173"/>
			<point x="217" y="179"/>
			<point x="211" y="131" type="curve" smooth="yes"/>
			<point x="208" y="108"/>
			<point x="205" y="79"/>
			<point x="219" y="79" type="curve" smooth="yes"/>
			<point x="230" y="79"/>
			<point x="227" y="107"/>
			<point x="222" y="134" type="curve" smooth="yes"/>
			<point x="222" y="136" type="line"/>
			<point x="287" y="141"/>
			<point x="321" y="170"/>
			<point x="401" y="171" type="curve"/>
			<point x="397" y="164"/>
			<point x="393" y="158"/>
			<point x="390" y="150" type="curve" smooth="yes"/>
			<point x="359" y="74"/>
			<point x="390" y="29"/>
		</contour>
		<contour>
			<point x="239" y="147" type="curve" smooth="yes"/>
			<point x="220" y="145" type="line"/>
			<point x="215" y="179"/>
			<point x="221" y="181"/>
			<point x="244" y="185" type="curve"/>
			<point x="353" y="221"/>
			<point x="480" y="360"/>
			<point x="498" y="475" type="curve"/>
			<point x="504" y="430"/>
			<point x="599" y="356"/>
			<point x="557" y="289" type="curve" smooth="yes"/>
			<point x="529" y="244"/>
			<point x="465" y="235"/>
			<point x="421" y="195" type="curve"/>
			<point x="353" y="184"/>
			<point x="294" y="155"/>
		</contour>
		<contour>
			<point x="437" y="593" type="curve"/>
			<point x="500" y="530" type="line"/>
			<point x="563" y="593" type="line"/>
			<point x="537" y="608"/>
			<point x="530" y="635"/>
			<point x="530" y="683" type="curve" smooth="yes"/>
			<point x="530" y="740" type="line"/>
			<point x="603" y="740" type="line" smooth="yes"/>
			<point x="648" y="740"/>
			<point x="648" y="708"/>
			<point x="648" y="678" type="curve"/>
			<point x="715" y="745" type="line"/>
			<point x="694" y="770" type="line"/>
			<point x="530" y="770" type="line"/>
			<point x="530" y="877" type="line"/>
			<point x="586" y="926" type="line"/>
			<point x="495" y="926" type="line"/>
			<point x="495" y="903"/>
			<point x="488" y="872"/>
			<point x="470" y="861" type="curve"/>
			<point x="470" y="770" type="line"/>
			<point x="394" y="770" type="line" smooth="yes"/>
			<point x="322" y="770"/>
			<point x="265" y="800"/>
			<point x="265" y="873" type="curve" smooth="yes"/>
			<point x="265" y="917"/>
			<point x="299" y="958"/>
			<point x="343" y="958" type="curve" smooth="yes"/>
			<point x="405" y="958"/>
			<point x="431" y="907"/>
			<point x="441" y="892" type="curve" smooth="yes"/>
			<point x="448" y="882"/>
			<point x="472" y="948"/>
			<point x="450" y="965" type="curve" smooth="yes"/>
			<point x="426" y="983"/>
			<point x="370" y="991"/>
			<point x="343" y="991" type="curve" smooth="yes"/>
			<point x="306" y="991"/>
			<point x="284" y="983"/>
			<point x="263" y="974" type="curve" smooth="yes"/>
			<point x="221" y="956"/>
			<point x="189" y="919"/>
			<point x="189" y="873" type="curve" smooth="yes"/>
			<point x="189" y="801"/>
			<point x="232" y="740"/>
			<point x="363" y="740" type="curve" smooth="yes"/>
			<point x="470" y="740" type="line"/>
			<point x="470" y="683" type="line" smooth="yes"/>
			<point x="470" y="635"/>
			<point x="463" y="608"/>
		</contour>
	</outline>
</glyph>
<glyph name="hyphen_hyphen_hyphen.ss01_ss02_ss04" format="2">
	<advance width="1000"/>
	<note>
		hyphen_hyphen_hyphen.ss01_ss02_ss04
  </note>
	<outline>
		<contour>
			<point x="10" y="513" type="line"/>
			<point x="10" y="333" type="line"/>
			<point x="118" y="481" type="line"/>
			<point x="447" y="481" type="line"/>
			<point x="447" y="513" type="line"/>
		</contour>
		<contour>
			<point x="501" y="106" type="curve" smooth="yes"/>
			<point x="613" y="106"/>
			<point x="654" y="108"/>
			<point x="765" y="108" type="curve" smooth="yes"/>
			<point x="819" y="108"/>
			<point x="860" y="125"/>
			<point x="793" y="192" type="curve" smooth="yes"/>
			<point x="781" y="204"/>
			<point x="771" y="192"/>
			<point x="792" y="181" type="curve" smooth="yes"/>
			<point x="863" y="144"/>
			<point x="747" y="114"/>
			<point x="667" y="114" type="curve" smooth="yes"/>
			<point x="647" y="114"/>
			<point x="637" y="113"/>
			<point x="625" y="121" type="curve" smooth="yes"/>
			<point x="615" y="127"/>
			<point x="632" y="143"/>
			<point x="639" y="150" type="curve" smooth="yes"/>
			<point x="648" y="159"/>
			<point x="654" y="166"/>
			<point x="649" y="168" type="curve" smooth="yes"/>
			<point x="643" y="170"/>
			<point x="637" y="154"/>
			<point x="629" y="143" type="curve" smooth="yes"/>
			<point x="623" y="135"/>
			<point x="615" y="125"/>
			<point x="610" y="139" type="curve" smooth="yes"/>
			<point x="597" y="173"/>
			<point x="610" y="195"/>
			<point x="633" y="242" type="curve" smooth="yes"/>
			<point x="658" y="292"/>
			<point x="637" y="290"/>
			<point x="627" y="250" type="curve" smooth="yes"/>
			<point x="608" y="176"/>
			<point x="569" y="113"/>
			<point x="523" y="114" type="curve" smooth="yes"/>
			<point x="491" y="115"/>
			<point x="485" y="127"/>
			<point x="514" y="161" type="curve" smooth="yes"/>
			<point x="524" y="173"/>
			<point x="541" y="189"/>
			<point x="531" y="194" type="curve" smooth="yes"/>
			<point x="524" y="197"/>
			<point x="515" y="181"/>
			<point x="508" y="165" type="curve" smooth="yes"/>
			<point x="492" y="130"/>
			<point x="479" y="122"/>
			<point x="481" y="146" type="curve" smooth="yes"/>
			<point x="484" y="179"/>
			<point x="459" y="106"/>
		</contour>
		<contour>
			<point x="334" y="69" type="line"/>
			<point x="334" y="0" type="line"/>
			<point x="898" y="0" type="line"/>
			<point x="898" y="69" type="line"/>
		</contour>
		<contour>
			<point x="527" y="90" type="line"/>
			<point x="537" y="71" type="line"/>
			<point x="761" y="71" type="line"/>
			<point x="771" y="90" type="line"/>
		</contour>
		<contour>
			<point x="486" y="104" type="line"/>
			<point x="486" y="92" type="line"/>
			<point x="810" y="92" type="line"/>
			<point x="810" y="104" type="line"/>
		</contour>
		<contour>
			<point x="359" y="694" type="curve" smooth="yes"/>
			<point x="369" y="687"/>
			<point x="374" y="688"/>
			<point x="376" y="708" type="curve" smooth="yes"/>
			<point x="378" y="729"/>
			<point x="358" y="732"/>
			<point x="349" y="727" type="curve" smooth="yes"/>
			<point x="342" y="723"/>
			<point x="329" y="727"/>
			<point x="336" y="733" type="curve" smooth="yes"/>
			<point x="341" y="737"/>
			<point x="359" y="737"/>
			<point x="369" y="737" type="curve" smooth="yes"/>
			<point x="605" y="737" type="line" smooth="yes"/>
			<point x="706" y="737"/>
			<point x="745" y="802"/>
			<point x="702" y="830" type="curve" smooth="yes"/>
			<point x="667" y="853"/>
			<point x="681" y="889"/>
			<point x="627" y="893" type="curve" smooth="yes"/>
			<point x="571" y="897"/>
			<point x="626" y="861"/>
			<point x="629" y="809" type="curve"/>
			<point x="621" y="808"/>
			<point x="612" y="808"/>
			<point x="605" y="808" type="curve" smooth="yes"/>
			<point x="369" y="808" type="line" smooth="yes"/>
			<point x="302" y="808"/>
			<point x="319" y="741"/>
			<point x="330" y="727" type="curve" smooth="yes"/>
			<point x="335" y="721"/>
			<point x="345" y="719"/>
			<point x="348" y="716" type="curve" smooth="yes"/>
			<point x="351" y="713"/>
			<point x="348" y="701"/>
		</contour>
		<contour>
			<point x="661" y="816" type="curve"/>
			<point x="646" y="843"/>
			<point x="593" y="876"/>
			<point x="627" y="876" type="curve" smooth="yes"/>
			<point x="674" y="876"/>
			<point x="673" y="840"/>
			<point x="673" y="836" type="curve" smooth="yes"/>
			<point x="673" y="827"/>
			<point x="668" y="820"/>
		</contour>
	</outline>
</glyph>
<glyph name="question_question_question.ss02_ss04_ss0" format="2">
	<advance width="1000"/>
	<note>
		question_question_question.ss02_ss04_ss0
  </note>
	<outline>
		<contour>
			<point x="545" y="19" type="curve" smooth="yes"/>
			<point x="545" y="10"/>
			<point x="551" y="12"/>
			<point x="551" y="22" type="curve" smooth="yes"/>
			<point x="551" y="38"/>
			<point x="546" y="52"/>
			<point x="535" y="66" type="curve" smooth="yes"/>
			<point x="506" y="99"/>
			<point x="450" y="118"/>
			<point x="450" y="158" type="curve" smooth="yes"/>
			<point x="450" y="179"/>
			<point x="486" y="199"/>
			<point x="522" y="219" type="curve"/>
			<point x="542" y="228"/>
			<point x="542" y="190"/>
			<point x="539" y="165" type="curve" smooth="yes"/>
			<point x="538" y="156"/>
			<point x="538" y="147"/>
			<point x="545" y="147" type="curve" smooth="yes"/>
			<point x="552" y="147"/>
			<point x="550" y="159"/>
			<point x="549" y="164" type="curve" smooth="yes"/>
			<point x="546" y="180"/>
			<point x="539" y="226"/>
			<point x="559" y="239" type="curve" smooth="yes"/>
			<point x="600" y="262"/>
			<point x="631" y="301"/>
			<point x="631" y="349" type="curve" smooth="yes"/>
			<point x="631" y="409"/>
			<point x="584" y="437"/>
			<point x="511" y="437" type="curve" smooth="yes"/>
			<point x="441" y="437"/>
			<point x="393" y="424"/>
			<point x="337" y="369" type="curve" smooth="yes"/>
			<point x="316" y="348"/>
			<point x="319" y="334"/>
			<point x="332" y="330" type="curve" smooth="yes"/>
			<point x="346" y="325"/>
			<point x="354" y="335"/>
			<point x="365" y="358" type="curve" smooth="yes"/>
			<point x="383" y="395"/>
			<point x="406" y="419"/>
			<point x="444" y="419" type="curve" smooth="yes"/>
			<point x="461" y="419"/>
			<point x="459" y="397"/>
			<point x="454" y="374" type="curve" smooth="yes"/>
			<point x="449" y="353"/>
			<point x="447" y="329"/>
			<point x="457" y="329" type="curve" smooth="yes"/>
			<point x="468" y="329"/>
			<point x="465" y="353"/>
			<point x="463" y="372" type="curve" smooth="yes"/>
			<point x="459" y="398"/>
			<point x="463" y="425"/>
			<point x="487" y="425" type="curve" smooth="yes"/>
			<point x="538" y="425"/>
			<point x="567" y="399"/>
			<point x="569" y="335" type="curve" smooth="yes"/>
			<point x="570" y="286"/>
			<point x="543" y="245"/>
			<point x="490" y="210" type="curve" smooth="yes"/>
			<point x="464" y="193"/>
			<point x="424" y="165"/>
			<point x="424" y="139" type="curve" smooth="yes"/>
			<point x="424" y="95"/>
			<point x="545" y="81"/>
		</contour>
		<contour>
			<point x="509" y="4" type="curve"/>
			<point x="511" y="9" type="line"/>
			<point x="517" y="6"/>
			<point x="525" y="11"/>
			<point x="526" y="16" type="curve"/>
			<point x="532" y="14" type="line"/>
			<point x="530" y="5"/>
			<point x="517" y="0"/>
		</contour>
		<contour>
			<point x="508" y="26" type="curve"/>
			<point x="518" y="17" type="line"/>
			<point x="512" y="13"/>
			<point x="504" y="21"/>
		</contour>
		<contour>
			<point x="513" y="0" type="curve" smooth="yes"/>
			<point x="527" y="0"/>
			<point x="539" y="11"/>
			<point x="539" y="23" type="curve" smooth="yes"/>
			<point x="539" y="36"/>
			<point x="527" y="47"/>
			<point x="513" y="47" type="curve" smooth="yes"/>
			<point x="499" y="47"/>
			<point x="487" y="36"/>
			<point x="487" y="23" type="curve" smooth="yes"/>
			<point x="487" y="11"/>
			<point x="499" y="0"/>
		</contour>
		<contour>
			<point x="496" y="25" type="curve"/>
			<point x="491" y="27" type="line"/>
			<point x="492" y="36"/>
			<point x="504" y="45"/>
			<point x="516" y="44" type="curve"/>
			<point x="515" y="40" type="line"/>
			<point x="508" y="40"/>
			<point x="497" y="33"/>
		</contour>
		<contour>
			<point x="527" y="32" type="curve"/>
			<point x="523" y="29" type="line"/>
			<point x="518" y="35"/>
			<point x="512" y="32"/>
			<point x="508" y="30" type="curve"/>
			<point x="504" y="33" type="line"/>
			<point x="510" y="40"/>
			<point x="522" y="40"/>
		</contour>
		<contour>
			<point x="460" y="623" type="curve" smooth="yes"/>
			<point x="480" y="634"/>
			<point x="494" y="650"/>
			<point x="513" y="636" type="curve" smooth="yes"/>
			<point x="537" y="619"/>
			<point x="507" y="677"/>
			<point x="513" y="687" type="curve" smooth="yes"/>
			<point x="519" y="697"/>
			<point x="538" y="617"/>
			<point x="597" y="642" type="curve" smooth="yes"/>
			<point x="641" y="661"/>
			<point x="694" y="764"/>
			<point x="694" y="822" type="curve"/>
			<point x="677" y="829"/>
			<point x="665" y="838"/>
			<point x="656" y="847" type="curve"/>
			<point x="681" y="848" type="line"/>
			<point x="668" y="918"/>
			<point x="643" y="949"/>
			<point x="583" y="979" type="curve" smooth="yes"/>
			<point x="497" y="1022"/>
			<point x="410" y="992"/>
			<point x="355" y="897" type="curve" smooth="yes"/>
			<point x="341" y="873"/>
			<point x="321" y="833"/>
			<point x="339" y="824" type="curve" smooth="yes"/>
			<point x="343" y="822"/>
			<point x="351" y="819"/>
			<point x="354" y="817" type="curve" smooth="yes"/>
			<point x="366" y="809"/>
			<point x="357" y="789"/>
			<point x="345" y="770" type="curve" smooth="yes"/>
			<point x="340" y="762"/>
			<point x="340" y="758"/>
			<point x="343" y="756" type="curve" smooth="yes"/>
			<point x="352" y="750"/>
			<point x="404" y="756"/>
			<point x="423" y="775" type="curve"/>
			<point x="405" y="791"/>
			<point x="407" y="833"/>
			<point x="421" y="856" type="curve" smooth="yes"/>
			<point x="466" y="930"/>
			<point x="512" y="989"/>
			<point x="567" y="954" type="curve" smooth="yes"/>
			<point x="608" y="928"/>
			<point x="599" y="897"/>
			<point x="596" y="845" type="curve"/>
			<point x="627" y="846" type="line"/>
			<point x="615" y="769"/>
			<point x="571" y="624"/>
			<point x="525" y="725" type="curve" smooth="yes"/>
			<point x="470" y="845"/>
			<point x="516" y="812"/>
			<point x="528" y="805" type="curve" smooth="yes"/>
			<point x="542" y="797"/>
			<point x="445" y="893"/>
			<point x="432" y="722" type="curve" smooth="yes"/>
			<point x="423" y="602"/>
			<point x="442" y="613"/>
		</contour>
		<contour>
			<point x="271" y="745" type="curve" smooth="yes"/>
			<point x="288" y="745"/>
			<point x="300" y="760"/>
			<point x="300" y="778" type="curve" smooth="yes"/>
			<point x="300" y="796"/>
			<point x="287" y="810"/>
			<point x="271" y="810" type="curve" smooth="yes"/>
			<point x="256" y="810"/>
			<point x="243" y="796"/>
			<point x="243" y="778" type="curve" smooth="yes"/>
			<point x="243" y="760"/>
			<point x="256" y="745"/>
		</contour>
		<contour>
			<point x="486" y="532" type="curve" smooth="yes"/>
			<point x="508" y="531"/>
			<point x="526" y="550"/>
			<point x="528" y="575" type="curve" smooth="yes"/>
			<point x="530" y="601"/>
			<point x="513" y="620"/>
			<point x="491" y="621" type="curve" smooth="yes"/>
			<point x="469" y="622"/>
			<point x="451" y="603"/>
			<point x="450" y="579" type="curve" smooth="yes"/>
			<point x="449" y="554"/>
			<point x="464" y="533"/>
		</contour>
		<contour>
			<point x="226" y="798" type="curve" smooth="yes"/>
			<point x="252" y="798"/>
			<point x="266" y="823"/>
			<point x="259" y="845" type="curve" smooth="yes"/>
			<point x="256" y="855"/>
			<point x="246" y="869"/>
			<point x="246" y="875" type="curve" smooth="yes"/>
			<point x="246" y="881"/>
			<point x="253" y="882"/>
			<point x="269" y="879" type="curve" smooth="yes"/>
			<point x="313" y="871"/>
			<point x="348" y="892"/>
			<point x="348" y="918" type="curve" smooth="yes"/>
			<point x="348" y="937"/>
			<point x="323" y="997"/>
			<point x="255" y="997" type="curve" smooth="yes"/>
			<point x="208" y="997"/>
			<point x="166" y="965"/>
			<point x="175" y="924" type="curve" smooth="yes"/>
			<point x="183" y="887"/>
			<point x="286" y="891"/>
			<point x="286" y="923" type="curve" smooth="yes"/>
			<point x="286" y="951"/>
			<point x="229" y="956"/>
			<point x="229" y="925" type="curve"/>
			<point x="245" y="925" type="line"/>
			<point x="245" y="937"/>
			<point x="269" y="940"/>
			<point x="271" y="923" type="curve" smooth="yes"/>
			<point x="273" y="904"/>
			<point x="220" y="902"/>
			<point x="220" y="925" type="curve" smooth="yes"/>
			<point x="220" y="970"/>
			<point x="298" y="968"/>
			<point x="298" y="917" type="curve" smooth="yes"/>
			<point x="298" y="898"/>
			<point x="287" y="893"/>
			<point x="260" y="893" type="curve" smooth="yes"/>
			<point x="214" y="893"/>
			<point x="193" y="883"/>
			<point x="193" y="843" type="curve" smooth="yes"/>
			<point x="193" y="816"/>
			<point x="203" y="798"/>
		</contour>
		<contour>
			<point x="731" y="745" type="curve" smooth="yes"/>
			<point x="747" y="745"/>
			<point x="760" y="760"/>
			<point x="760" y="778" type="curve" smooth="yes"/>
			<point x="760" y="796"/>
			<point x="747" y="810"/>
			<point x="731" y="810" type="curve" smooth="yes"/>
			<point x="716" y="810"/>
			<point x="703" y="796"/>
			<point x="703" y="778" type="curve" smooth="yes"/>
			<point x="703" y="760"/>
			<point x="716" y="745"/>
		</contour>
		<contour>
			<point x="703" y="836" type="curve" smooth="yes"/>
			<point x="703" y="814"/>
			<point x="762" y="814"/>
			<point x="762" y="837" type="curve" smooth="yes"/>
			<point x="762" y="860"/>
			<point x="775" y="856"/>
			<point x="807" y="856" type="curve" smooth="yes"/>
			<point x="863" y="856"/>
			<point x="887" y="879"/>
			<point x="887" y="926" type="curve" smooth="yes"/>
			<point x="887" y="971"/>
			<point x="854" y="997"/>
			<point x="808" y="997" type="curve" smooth="yes"/>
			<point x="744" y="997"/>
			<point x="705" y="967"/>
			<point x="705" y="903" type="curve" smooth="yes"/>
			<point x="705" y="879"/>
			<point x="753" y="909"/>
			<point x="753" y="909" type="curve"/>
			<point x="675" y="965"/>
			<point x="794" y="925"/>
			<point x="794" y="945" type="curve" smooth="yes"/>
			<point x="794" y="955"/>
			<point x="777" y="967"/>
			<point x="777" y="971" type="curve" smooth="yes"/>
			<point x="777" y="974"/>
			<point x="784" y="976"/>
			<point x="800" y="976" type="curve" smooth="yes"/>
			<point x="815" y="976"/>
			<point x="827" y="973"/>
			<point x="827" y="965" type="curve" smooth="yes"/>
			<point x="827" y="955"/>
			<point x="809" y="936"/>
			<point x="809" y="923" type="curve" smooth="yes"/>
			<point x="809" y="912"/>
			<point x="828" y="890"/>
			<point x="828" y="883" type="curve" smooth="yes"/>
			<point x="828" y="876"/>
			<point x="821" y="873"/>
			<point x="807" y="873" type="curve" smooth="yes"/>
			<point x="754" y="873"/>
			<point x="703" y="867"/>
		</contour>
		<contour>
			<point x="871" y="311" type="curve"/>
			<point x="835" y="337" type="line"/>
			<point x="796" y="282"/>
			<point x="718" y="320"/>
			<point x="718" y="371" type="curve" smooth="yes"/>
			<point x="718" y="434"/>
			<point x="770" y="470"/>
			<point x="850" y="544" type="curve" smooth="yes"/>
			<point x="957" y="643"/>
			<point x="991" y="662"/>
			<point x="991" y="766" type="curve" smooth="yes"/>
			<point x="991" y="825"/>
			<point x="967" y="860"/>
			<point x="920" y="860" type="curve" smooth="yes"/>
			<point x="828" y="860"/>
			<point x="633" y="624"/>
			<point x="663" y="489" type="curve"/>
			<point x="718" y="510" type="line"/>
			<point x="674" y="640"/>
			<point x="793" y="830"/>
			<point x="928" y="830" type="curve" smooth="yes"/>
			<point x="963" y="830"/>
			<point x="983" y="807"/>
			<point x="983" y="776" type="curve" smooth="yes"/>
			<point x="983" y="724"/>
			<point x="924" y="621"/>
			<point x="843" y="550" type="curve" smooth="yes"/>
			<point x="737" y="457"/>
			<point x="690" y="429"/>
			<point x="689" y="390" type="curve" smooth="yes"/>
			<point x="688" y="370"/>
			<point x="705" y="345"/>
			<point x="727" y="326" type="curve" smooth="yes"/>
			<point x="765" y="293"/>
			<point x="832" y="261"/>
		</contour>
		<contour>
			<point x="912" y="201" type="curve" smooth="yes"/>
			<point x="927" y="201"/>
			<point x="939" y="218"/>
			<point x="944" y="244" type="curve" smooth="yes"/>
			<point x="949" y="270"/>
			<point x="943" y="286"/>
			<point x="928" y="286" type="curve" smooth="yes"/>
			<point x="912" y="286"/>
			<point x="900" y="270"/>
			<point x="895" y="244" type="curve" smooth="yes"/>
			<point x="890" y="218"/>
			<point x="896" y="201"/>
		</contour>
	</outline>
</glyph>
